<svg width="334" height="334" viewBox="0 0 334 334" fill="none" xmlns="http://www.w3.org/2000/svg">
<path fill-rule="evenodd" clip-rule="evenodd" d="M165.5 2C165.499 1.17158 166.171 0.500002 166.999 0.5H167.001C167.829 0.500003 168.501 1.17158 168.501 2C168.501 2.82843 167.829 3.5 167.001 3.5H167C166.171 3.5 165.5 2.82843 165.5 2ZM156.714 2.30864C156.772 3.13502 156.149 3.85219 155.323 3.9105C154.497 3.96881 153.778 3.34624 153.72 2.51986C153.662 1.69349 154.284 0.976315 155.111 0.918004C155.937 0.859699 156.655 1.48227 156.714 2.30864ZM177.286 2.30865C177.345 1.48228 178.062 0.859634 178.888 0.91794C179.715 0.976251 180.338 1.6935 180.28 2.51987C180.222 3.34624 179.504 3.96888 178.678 3.91057C177.852 3.85226 177.228 3.13502 177.286 2.30865ZM144.992 3.44801C145.109 4.26814 144.539 5.02777 143.719 5.14467C142.899 5.26159 142.138 4.69165 142.022 3.87151C141.905 3.05138 142.475 2.29175 143.295 2.17484C144.115 2.05793 144.876 2.62787 144.992 3.44801ZM189.008 3.44802C189.125 2.62788 189.884 2.0578 190.704 2.17471C191.524 2.29162 192.095 3.05138 191.979 3.87152C191.862 4.69166 191.102 5.26173 190.282 5.14482C189.462 5.02791 188.891 4.26815 189.008 3.44802ZM133.379 5.4209C133.554 6.23056 133.04 7.02906 132.23 7.2044C131.421 7.37974 130.621 6.86574 130.446 6.05608C130.271 5.24642 130.785 4.44792 131.595 4.27257C132.404 4.09723 133.204 4.61124 133.379 5.4209ZM200.621 5.42091C200.796 4.61126 201.595 4.09704 202.405 4.27238C203.214 4.44772 203.729 5.24643 203.554 6.05609C203.379 6.86575 202.58 7.37996 201.771 7.20462C200.961 7.02928 200.446 6.23057 200.621 5.42091ZM121.936 8.22198C122.169 9.01694 121.713 9.85033 120.918 10.0834C120.124 10.3165 119.289 9.86126 119.056 9.06629C118.823 8.27133 119.279 7.43794 120.074 7.20486C120.868 6.97179 121.703 7.42701 121.936 8.22198ZM212.064 8.22199C212.297 7.42703 213.131 6.97152 213.926 7.2046C214.721 7.43768 215.177 8.27135 214.944 9.06631C214.711 9.86127 213.877 10.3168 213.082 10.0837C212.288 9.85062 211.831 9.01696 212.064 8.22199ZM110.727 11.8373C111.017 12.6134 110.623 13.4774 109.846 13.767C109.07 14.0566 108.205 13.6626 107.916 12.8864C107.626 12.1103 108.02 11.2463 108.797 10.9566C109.573 10.667 110.438 11.0611 110.727 11.8373ZM223.273 11.8373C223.562 11.0611 224.426 10.6667 225.202 10.9563C225.979 11.2459 226.374 12.1103 226.084 12.8864C225.795 13.6626 224.931 14.057 224.155 13.7674C223.378 13.4777 222.983 12.6134 223.273 11.8373ZM99.8029 16.2507C100.148 17.004 99.8162 17.8941 99.0628 18.2387C98.3095 18.5833 97.4185 18.2524 97.0739 17.499C96.7293 16.7457 97.0606 15.8556 97.814 15.511C98.5673 15.1664 99.4583 15.4973 99.8029 16.2507ZM234.197 16.2507C234.542 15.4973 235.432 15.166 236.185 15.5106C236.938 15.8552 237.271 16.7457 236.926 17.499C236.581 18.2524 235.691 18.5837 234.938 18.2391C234.185 17.8945 233.853 17.004 234.197 16.2507ZM89.2274 21.4343C89.6251 22.161 89.3583 23.0725 88.6316 23.4702C87.9048 23.8679 86.9925 23.6016 86.5948 22.8748C86.1971 22.1481 86.4639 21.2366 87.1907 20.8389C87.9174 20.4412 88.8298 20.7075 89.2274 21.4343ZM244.773 21.4343C245.17 20.7075 246.082 20.4408 246.808 20.8384C247.535 21.2361 247.803 22.1481 247.405 22.8748C247.008 23.6016 246.096 23.8683 245.369 23.4707C244.643 23.073 244.375 22.161 244.773 21.4343ZM79.046 27.3632C79.4945 28.0597 79.2935 28.988 78.597 29.4365C77.9005 29.885 76.9715 29.6845 76.5229 28.988C76.0744 28.2915 76.2754 27.3633 76.9719 26.9148C77.6684 26.4663 78.5975 26.6667 79.046 27.3632ZM254.954 27.3632C255.403 26.6667 256.331 26.4657 257.027 26.9143C257.724 27.3628 257.926 28.2915 257.477 28.988C257.029 29.6845 256.1 29.8856 255.404 29.437C254.707 28.9885 254.505 28.0597 254.954 27.3632ZM69.3159 34.0012C69.8129 34.664 69.6784 35.6042 69.0156 36.1012C68.3528 36.5981 67.4118 36.4643 66.9149 35.8014C66.4179 35.1386 66.5524 34.1984 67.2152 33.7015L67.216 33.7009C67.8788 33.2039 68.819 33.3384 69.3159 34.0012ZM264.684 34.0012C265.181 33.3384 266.121 33.2039 266.784 33.7009C267.447 34.1978 267.582 35.1386 267.085 35.8014C266.588 36.4643 265.648 36.5987 264.985 36.1017C264.322 35.6048 264.187 34.664 264.684 34.0012ZM273.919 41.3157C274.462 40.6898 275.41 40.6225 276.035 41.1652C276.661 41.708 276.729 42.656 276.187 43.2819C275.644 43.9077 274.696 43.9751 274.071 43.4323C273.445 42.8895 273.377 41.9415 273.919 41.3157ZM60.0805 41.3157C60.6233 41.9416 60.556 42.8889 59.9301 43.4317C59.3043 43.9744 58.3562 43.9077 57.8134 43.2819C57.2706 42.656 57.338 41.7087 57.9638 41.1659C58.5897 40.6231 59.5378 40.6898 60.0805 41.3157ZM282.612 49.2664C283.197 48.6806 284.147 48.6806 284.733 49.2664C285.319 49.8522 285.319 50.8026 284.734 51.3884C284.148 51.9742 283.198 51.9742 282.612 51.3884C282.027 50.8026 282.026 49.8522 282.612 49.2664ZM51.3884 49.2664C51.9742 49.8522 51.9742 50.8019 51.3884 51.3877C50.8026 51.9735 49.8522 51.9742 49.2664 51.3884C48.6806 50.8026 48.6806 49.8529 49.2664 49.2671C49.8522 48.6813 50.8026 48.6806 51.3884 49.2664ZM290.718 57.8134C291.344 57.2706 292.291 57.338 292.834 57.9638C293.377 58.5897 293.31 59.5378 292.684 60.0805C292.058 60.6233 291.111 60.556 290.568 59.9301C290.026 59.3043 290.092 58.3562 290.718 57.8134ZM43.2819 57.8134C43.9077 58.3562 43.9751 59.3035 43.4323 59.9294C42.8895 60.5552 41.9415 60.6233 41.3157 60.0806C40.6898 59.5378 40.6225 58.5904 41.1652 57.9646C41.708 57.3387 42.656 57.2706 43.2819 57.8134ZM35.8014 66.9149C36.4643 67.4118 36.5987 68.352 36.1017 69.0148C35.6048 69.6776 34.664 69.8129 34.0012 69.3159C33.3384 68.819 33.2039 67.8788 33.7009 67.216C34.1978 66.5531 35.1386 66.4179 35.8014 66.9149ZM298.199 66.9149C298.861 66.4179 299.802 66.5524 300.299 67.2152C300.796 67.878 300.662 68.819 299.999 69.3159C299.336 69.8129 298.396 69.6784 297.899 69.0156C297.402 68.3528 297.536 67.4118 298.199 66.9149ZM28.988 76.5229C29.6845 76.9715 29.8856 77.8997 29.437 78.5962C28.9885 79.2927 28.0597 79.4945 27.3632 79.046C26.6667 78.5975 26.4657 77.6692 26.9143 76.9727C27.3628 76.2762 28.2915 76.0744 28.988 76.5229ZM305.012 76.5229C305.708 76.0744 306.637 76.2754 307.085 76.9719C307.534 77.6684 307.333 78.5975 306.637 79.046C305.94 79.4945 305.012 79.2935 304.564 78.597C304.115 77.9005 304.315 76.9715 305.012 76.5229ZM22.8748 86.5948C23.6016 86.9925 23.8683 87.904 23.4707 88.6307C23.073 89.3575 22.161 89.6251 21.4343 89.2274C20.7075 88.8298 20.4408 87.9183 20.8384 87.1915C21.2361 86.4648 22.1481 86.1971 22.8748 86.5948ZM311.125 86.5948C311.852 86.1971 312.763 86.4639 313.161 87.1907C313.559 87.9174 313.292 88.8298 312.566 89.2274C311.839 89.6251 310.927 89.3583 310.53 88.6316C310.132 87.9048 310.398 86.9925 311.125 86.5948ZM17.499 97.0739C18.2524 97.4185 18.5837 98.3086 18.2391 99.0619C17.8945 99.8153 17.004 100.147 16.2507 99.8029C15.4973 99.4583 15.166 98.5682 15.5106 97.8148C15.8552 97.0615 16.7457 96.7293 17.499 97.0739ZM316.501 97.0739C317.254 96.7293 318.144 97.0606 318.489 97.814L318.489 97.8149C318.834 98.5682 318.503 99.4583 317.749 99.8029C316.996 100.148 316.106 99.8162 315.761 99.0628C315.417 98.3095 315.748 97.4185 316.501 97.0739ZM12.8864 107.916C13.6626 108.205 14.057 109.069 13.7674 109.845C13.4777 110.622 12.6134 111.017 11.8373 110.727C11.0611 110.438 10.6667 109.574 10.9563 108.798C11.2459 108.021 12.1103 107.626 12.8864 107.916ZM321.114 107.916C321.89 107.626 322.754 108.02 323.043 108.797C323.333 109.573 322.939 110.438 322.163 110.727C321.387 111.017 320.523 110.623 320.233 109.846C319.943 109.07 320.337 108.205 321.114 107.916ZM9.06631 119.056C9.86127 119.289 10.3168 120.123 10.0837 120.918C9.85062 121.712 9.01696 122.169 8.22199 121.936C7.42703 121.703 6.97152 120.869 7.2046 120.074C7.43768 119.279 8.27135 118.823 9.06631 119.056ZM324.934 119.056C325.729 118.823 326.562 119.279 326.795 120.074C327.028 120.868 326.573 121.703 325.778 121.936C324.983 122.169 324.15 121.713 323.917 120.918C323.684 120.124 324.139 119.289 324.934 119.056ZM6.05609 130.446C6.86575 130.621 7.37996 131.42 7.20462 132.229C7.02928 133.039 6.23057 133.554 5.42091 133.379C4.61126 133.204 4.09704 132.405 4.27238 131.595C4.44772 130.786 5.24643 130.271 6.05609 130.446ZM327.944 130.446C328.754 130.271 329.552 130.785 329.727 131.595C329.903 132.404 329.389 133.204 328.579 133.379C327.769 133.554 326.971 133.04 326.796 132.23C326.62 131.421 327.134 130.621 327.944 130.446ZM3.87152 142.021C4.69166 142.138 5.26173 142.898 5.14482 143.718C5.02791 144.538 4.26815 145.109 3.44802 144.992C2.62788 144.875 2.0578 144.116 2.17471 143.296C2.29162 142.476 3.05138 141.905 3.87152 142.021ZM330.128 142.022C330.949 141.905 331.708 142.475 331.825 143.295C331.942 144.115 331.372 144.876 330.552 144.992C329.732 145.109 328.972 144.539 328.855 143.719C328.738 142.899 329.308 142.138 330.128 142.022ZM2.51987 153.72C3.34624 153.778 3.96888 154.496 3.91057 155.322C3.85226 156.148 3.13502 156.772 2.30865 156.714C1.48228 156.655 0.859634 155.938 0.91794 155.112C0.976251 154.285 1.6935 153.662 2.51987 153.72ZM331.48 153.72C332.307 153.662 333.024 154.284 333.082 155.111C333.14 155.937 332.518 156.655 331.691 156.714C330.865 156.772 330.148 156.149 330.09 155.323C330.031 154.497 330.654 153.778 331.48 153.72ZM2 165.499C2.82843 165.499 3.5 166.171 3.5 166.999V167C3.5 167.829 2.82843 168.5 2 168.5C1.17158 168.501 0.500002 167.829 0.5 167.001V166.999C0.500003 166.171 1.17158 165.499 2 165.499ZM332 165.5C332.828 165.499 333.5 166.171 333.5 166.999V167.001C333.5 167.829 332.828 168.501 332 168.501C331.172 168.501 330.5 167.829 330.5 167.001V167C330.5 166.171 331.172 165.5 332 165.5ZM2.30864 177.286C3.13502 177.228 3.85219 177.851 3.9105 178.677C3.96881 179.503 3.34624 180.222 2.51986 180.28C1.69349 180.338 0.976315 179.716 0.918004 178.889C0.859699 178.063 1.48227 177.345 2.30864 177.286ZM331.691 177.286C332.518 177.345 333.14 178.062 333.082 178.888C333.024 179.715 332.306 180.338 331.48 180.28C330.654 180.222 330.031 179.504 330.089 178.678C330.148 177.852 330.865 177.228 331.691 177.286ZM3.44801 189.008C4.26814 188.891 5.02777 189.461 5.14467 190.281C5.26159 191.101 4.69165 191.862 3.87151 191.978C3.05138 192.095 2.29175 191.525 2.17484 190.705C2.05793 189.885 2.62787 189.124 3.44801 189.008ZM330.552 189.008C331.372 189.125 331.942 189.884 331.825 190.704C331.708 191.524 330.949 192.095 330.128 191.979C329.308 191.862 328.738 191.102 328.855 190.282C328.972 189.462 329.732 188.891 330.552 189.008ZM5.4209 200.621C6.23056 200.446 7.02906 200.96 7.2044 201.77C7.37974 202.579 6.86574 203.379 6.05608 203.554C5.24642 203.729 4.44792 203.215 4.27257 202.405C4.09723 201.596 4.61124 200.796 5.4209 200.621ZM328.579 200.621C329.389 200.796 329.903 201.595 329.728 202.405C329.552 203.214 328.754 203.729 327.944 203.554C327.134 203.379 326.62 202.58 326.795 201.771C326.971 200.961 327.769 200.446 328.579 200.621ZM8.22198 212.064C9.01694 211.831 9.85033 212.287 10.0834 213.081C10.3165 213.876 9.86126 214.711 9.06629 214.944C8.27133 215.177 7.43794 214.721 7.20486 213.926C6.97179 213.132 7.42701 212.297 8.22198 212.064ZM325.778 212.064C326.573 212.297 327.028 213.131 326.795 213.926C326.562 214.721 325.729 215.177 324.934 214.944C324.139 214.711 323.683 213.877 323.916 213.082C324.149 212.288 324.983 211.831 325.778 212.064ZM11.8373 223.273C12.6134 222.983 13.4774 223.377 13.767 224.154C14.0566 224.93 13.6626 225.795 12.8864 226.084C12.1103 226.374 11.2463 225.98 10.9566 225.203C10.667 224.427 11.0611 223.562 11.8373 223.273ZM322.163 223.273C322.939 223.562 323.333 224.426 323.044 225.202C322.754 225.979 321.89 226.374 321.114 226.084C320.337 225.795 319.943 224.931 320.233 224.155C320.522 223.378 321.387 222.983 322.163 223.273ZM16.2507 234.197C17.004 233.852 17.8941 234.184 18.2387 234.937C18.5833 235.691 18.2524 236.581 17.499 236.926C16.7457 237.271 15.8556 236.939 15.511 236.186C15.1664 235.433 15.4973 234.542 16.2507 234.197ZM317.749 234.197C318.503 234.542 318.834 235.432 318.489 236.185C318.145 236.938 317.254 237.271 316.501 236.926C315.748 236.581 315.416 235.691 315.761 234.938C316.105 234.185 316.996 233.853 317.749 234.197ZM21.4343 244.773C22.161 244.375 23.0725 244.642 23.4702 245.368C23.8679 246.095 23.6016 247.008 22.8748 247.405C22.1481 247.803 21.2366 247.536 20.8389 246.809C20.4412 246.083 20.7075 245.17 21.4343 244.773ZM312.566 244.773C313.292 245.17 313.559 246.082 313.162 246.808C312.764 247.535 311.852 247.803 311.125 247.405C310.398 247.008 310.132 246.096 310.529 245.369C310.927 244.643 311.839 244.375 312.566 244.773ZM27.3632 254.954C28.0597 254.505 28.988 254.706 29.4365 255.403C29.885 256.099 29.6845 257.029 28.988 257.477C28.2915 257.926 27.3633 257.725 26.9148 257.028C26.4663 256.332 26.6667 255.403 27.3632 254.954ZM306.637 254.954C307.333 255.403 307.534 256.331 307.086 257.027C306.637 257.724 305.708 257.926 305.012 257.477C304.315 257.029 304.114 256.1 304.563 255.404C305.012 254.707 305.94 254.505 306.637 254.954ZM34.0012 264.684C34.664 264.187 35.6042 264.322 36.1012 264.984C36.5981 265.647 36.4643 266.588 35.8014 267.085C35.1386 267.582 34.1984 267.448 33.7015 266.785C33.2045 266.122 33.3384 265.181 34.0012 264.684ZM299.999 264.684C300.662 265.181 300.796 266.121 300.299 266.784C299.802 267.447 298.861 267.582 298.199 267.085C297.536 266.588 297.401 265.648 297.898 264.985C298.395 264.322 299.336 264.187 299.999 264.684ZM41.3157 273.919C41.9416 273.377 42.8889 273.444 43.4317 274.07C43.9744 274.696 43.9077 275.644 43.2819 276.187C42.656 276.729 41.7087 276.662 41.1659 276.036L41.1653 276.035C40.6225 275.41 40.6898 274.462 41.3157 273.919ZM292.684 273.919C293.31 274.462 293.378 275.41 292.835 276.035C292.292 276.661 291.344 276.729 290.718 276.187C290.092 275.644 290.025 274.696 290.568 274.071C291.11 273.445 292.058 273.377 292.684 273.919ZM284.734 282.612C285.319 283.197 285.319 284.147 284.734 284.733C284.148 285.319 283.197 285.319 282.612 284.734C282.026 284.148 282.026 283.198 282.612 282.612C283.197 282.027 284.148 282.026 284.734 282.612ZM49.2664 282.612C49.8522 282.026 50.8019 282.026 51.3877 282.612C51.9735 283.197 51.9742 284.148 51.3884 284.734C50.8026 285.319 49.8529 285.319 49.2671 284.734C48.6813 284.148 48.6806 283.197 49.2664 282.612ZM57.8134 290.718C58.3562 290.092 59.3035 290.025 59.9294 290.568C60.5552 291.11 60.6233 292.058 60.0806 292.684C59.5378 293.31 58.5904 293.378 57.9646 292.835C57.3387 292.292 57.2706 291.344 57.8134 290.718ZM276.187 290.718C276.729 291.344 276.662 292.291 276.036 292.834C275.41 293.377 274.462 293.31 273.919 292.684C273.377 292.058 273.444 291.111 274.07 290.568C274.696 290.026 275.644 290.092 276.187 290.718ZM66.9149 298.199C67.4118 297.536 68.352 297.401 69.0148 297.898C69.6776 298.395 69.8129 299.336 69.3159 299.999C68.819 300.662 67.8788 300.796 67.216 300.299C66.5531 299.802 66.4179 298.861 66.9149 298.199ZM267.085 298.199C267.582 298.861 267.448 299.802 266.785 300.299C266.122 300.796 265.181 300.662 264.684 299.999C264.187 299.336 264.322 298.396 264.984 297.899C265.647 297.402 266.588 297.536 267.085 298.199ZM76.5229 305.012C76.9715 304.315 77.8997 304.114 78.5962 304.563C79.2927 305.012 79.4945 305.94 79.046 306.637C78.5975 307.333 77.6692 307.534 76.9727 307.086C76.2762 306.637 76.0744 305.708 76.5229 305.012ZM257.477 305.012C257.926 305.708 257.725 306.637 257.028 307.085C256.332 307.534 255.403 307.333 254.954 306.637C254.505 305.94 254.706 305.012 255.403 304.564C256.099 304.115 257.029 304.315 257.477 305.012ZM86.5948 311.125C86.9925 310.398 87.904 310.132 88.6307 310.529C89.3575 310.927 89.6251 311.839 89.2274 312.566C88.8298 313.292 87.9183 313.559 87.1915 313.162L87.1906 313.161C86.4639 312.763 86.1971 311.852 86.5948 311.125ZM247.405 311.125C247.803 311.852 247.536 312.763 246.809 313.161C246.083 313.559 245.17 313.292 244.773 312.566C244.375 311.839 244.642 310.927 245.368 310.53C246.095 310.132 247.008 310.398 247.405 311.125ZM97.0739 316.501C97.4185 315.748 98.3086 315.416 99.0619 315.761C99.8153 316.105 100.147 316.996 99.8029 317.749C99.4583 318.503 98.5682 318.834 97.8148 318.489C97.0615 318.145 96.7293 317.254 97.0739 316.501ZM236.926 316.501C237.271 317.254 236.939 318.144 236.186 318.489C235.433 318.834 234.542 318.503 234.197 317.749C233.852 316.996 234.184 316.106 234.937 315.761C235.691 315.417 236.581 315.748 236.926 316.501ZM107.916 321.114C108.205 320.337 109.069 319.943 109.845 320.233C110.622 320.522 111.017 321.387 110.727 322.163C110.438 322.939 109.574 323.333 108.798 323.044C108.021 322.754 107.626 321.89 107.916 321.114ZM226.084 321.114C226.374 321.89 225.98 322.754 225.203 323.043C224.427 323.333 223.562 322.939 223.273 322.163C222.983 321.387 223.377 320.523 224.154 320.233C224.93 319.943 225.795 320.337 226.084 321.114ZM119.056 324.934C119.289 324.139 120.123 323.683 120.918 323.916C121.712 324.149 122.169 324.983 121.936 325.778C121.703 326.573 120.869 327.028 120.074 326.795C119.279 326.562 118.823 325.729 119.056 324.934ZM214.944 324.934C215.177 325.729 214.721 326.562 213.926 326.795C213.132 327.028 212.297 326.573 212.064 325.778C211.831 324.983 212.287 324.15 213.081 323.917C213.876 323.684 214.711 324.139 214.944 324.934ZM130.446 327.944C130.621 327.134 131.42 326.62 132.229 326.795C133.039 326.971 133.554 327.769 133.379 328.579C133.204 329.389 132.405 329.903 131.595 329.728C130.786 329.552 130.271 328.754 130.446 327.944ZM203.554 327.944C203.729 328.754 203.215 329.552 202.405 329.727C201.596 329.903 200.796 329.389 200.621 328.579C200.446 327.769 200.96 326.971 201.77 326.796C202.579 326.62 203.379 327.134 203.554 327.944ZM142.021 330.128C142.138 329.308 142.898 328.738 143.718 328.855C144.538 328.972 145.109 329.732 144.992 330.552C144.875 331.372 144.116 331.942 143.296 331.825C142.476 331.708 141.905 330.949 142.021 330.128ZM191.978 330.128C192.095 330.949 191.525 331.708 190.705 331.825C189.885 331.942 189.124 331.372 189.008 330.552C188.891 329.732 189.461 328.972 190.281 328.855C191.101 328.738 191.862 329.308 191.978 330.128ZM153.72 331.48C153.778 330.654 154.496 330.031 155.322 330.089C156.148 330.148 156.772 330.865 156.714 331.691C156.655 332.518 155.938 333.14 155.112 333.082C154.285 333.024 153.662 332.306 153.72 331.48ZM180.28 331.48C180.338 332.307 179.716 333.024 178.889 333.082C178.063 333.14 177.345 332.518 177.286 331.691C177.228 330.865 177.851 330.148 178.677 330.09C179.503 330.031 180.222 330.654 180.28 331.48ZM165.499 332C165.499 331.172 166.171 330.5 166.999 330.5H167C167.829 330.5 168.5 331.172 168.5 332C168.501 332.828 167.829 333.5 167.001 333.5H166.999C166.171 333.5 165.499 332.828 165.499 332Z" fill="white"/>
</svg>
