<svg xmlns="http://www.w3.org/2000/svg" viewBox="0 0 50.39 49.12"><g id="Layer_2" data-name="Layer 2"><g id="Layer_1-2" data-name="Layer 1"><path d="M25.45,43.58q-2.93,5.54-8.72,5.54A10.89,10.89,0,0,1,9,46a10.22,10.22,0,0,1-3.3-7.77,9.77,9.77,0,0,1,2.8-6.67C5.47,31,3.28,29.74,2,27.85a10.81,10.81,0,0,1-2-6.27A11.08,11.08,0,0,1,1.42,16a10.46,10.46,0,0,1,3.71-3.92,9.54,9.54,0,0,1,5.06-1.4,12,12,0,0,1,4.46,1c-.09-1.2-.13-1.93-.13-2.22a8.93,8.93,0,0,1,3-6.6A10.56,10.56,0,0,1,25.13,0a10.09,10.09,0,0,1,7.42,3,9.37,9.37,0,0,1,3,6.85q0,.94-.06,1.59A10.45,10.45,0,0,1,40,10.25a9.47,9.47,0,0,1,7.5,3.36,11.17,11.17,0,0,1,2.92,7.51,11.71,11.71,0,0,1-1.75,5.73q-1.74,3.06-6.52,4.27a13,13,0,0,1,2.24,3.11,8.71,8.71,0,0,1,.75,3.88,10.55,10.55,0,0,1-3.32,7.69,10.41,10.41,0,0,1-7.55,3.32Q28.68,49.12,25.45,43.58Zm7.33-17.67a7.36,7.36,0,0,0-2.2-5.39,7.28,7.28,0,0,0-5.32-2.2,7.61,7.61,0,0,0-7.62,7.59,7.31,7.31,0,0,0,2.21,5.34,7.39,7.39,0,0,0,5.41,2.21,7.25,7.25,0,0,0,5.32-2.21A7.34,7.34,0,0,0,32.78,25.91Z"/></g></g></svg>