<svg width="50" height="3" viewBox="0 0 50 3" fill="none" xmlns="http://www.w3.org/2000/svg">
<path d="M0 1.5C0 0.671573 0.671573 0 1.5 0C2.32843 0 3.00048 0.671573 3.00048 1.5C3.00048 2.32843 2.32891 3 1.50048 3C0.672055 3 0 2.32843 0 1.5Z" fill="white"/>
<path d="M11.5709 1.5C11.5709 0.671573 12.2425 0 13.0709 0C13.8994 0 14.5719 0.671573 14.5719 1.5C14.5719 2.32843 13.9003 3 13.0719 3C12.2435 3 11.5709 2.32843 11.5709 1.5Z" fill="white"/>
<path d="M23.1424 1.5C23.1424 0.671573 23.8139 0 24.6424 0C25.4708 0 26.1433 0.671573 26.1433 1.5C26.1433 2.32843 25.4718 3 24.6433 3C23.8149 3 23.1424 2.32843 23.1424 1.5Z" fill="white"/>
<path d="M34.7138 1.5C34.7138 0.671573 35.3854 0 36.2138 0C37.0422 0 37.7148 0.671573 37.7148 1.5C37.7148 2.32843 37.0432 3 36.2148 3C35.3863 3 34.7138 2.32843 34.7138 1.5Z" fill="white"/>
<path d="M46.2852 1.5C46.2852 0.671573 46.9568 0 47.7852 0C48.6137 0 49.2862 0.671573 49.2862 1.5C49.2862 2.32843 48.6146 3 47.7862 3C46.9578 3 46.2852 2.32843 46.2852 1.5Z" fill="white"/>
</svg>
