<svg width="9" height="9" viewBox="0 0 9 9" fill="none" xmlns="http://www.w3.org/2000/svg">
<path d="M8.73153 0.827999C8.82153 0.737999 8.85754 0.611999 8.85754 0.521999C8.85754 0.251999 8.64154 0 8.37154 0C8.24553 0 8.11954 0.0359998 8.01154 0.144L4.53753 3.78L1.08153 0.144C0.991535 0.0540001 0.865535 0 0.739535 0C0.433535 0 0.235535 0.234 0.235535 0.504C0.235535 0.63 0.289535 0.755999 0.361535 0.827999L3.85353 4.5L0.361535 8.172C0.289535 8.244 0.235535 8.388 0.235535 8.514C0.235535 8.82 0.487535 9 0.739535 9C0.865535 9 0.991535 8.946 1.08153 8.856L4.53753 5.22L8.01154 8.856C8.11954 8.964 8.22754 9 8.35353 9C8.64154 9 8.85754 8.766 8.85754 8.496C8.85754 8.388 8.80354 8.244 8.71354 8.154L5.22153 4.5L8.73153 0.827999Z" fill="white"/>
</svg>
