<svg width="119" height="3" viewBox="0 0 119 3" fill="none" xmlns="http://www.w3.org/2000/svg">
<path fill-rule="evenodd" clip-rule="evenodd" d="M0 1.5C0 0.671573 0.671573 0 1.5 0C2.32843 0 3.00048 0.671573 3.00048 1.5C3.00048 2.32843 2.32891 3 1.50048 3C0.672055 3 0 2.32843 0 1.5ZM11.5709 1.5C11.5709 0.671573 12.2425 0 13.0709 0C13.8994 0 14.5719 0.671573 14.5719 1.5C14.5719 2.32843 13.9003 3 13.0719 3C12.2435 3 11.5709 2.32843 11.5709 1.5ZM23.1424 1.5C23.1424 0.671573 23.8139 0 24.6424 0C25.4708 0 26.1433 0.671573 26.1433 1.5C26.1433 2.32843 25.4718 3 24.6433 3C23.8149 3 23.1424 2.32843 23.1424 1.5ZM34.7138 1.5C34.7138 0.671573 35.3854 0 36.2138 0C37.0422 0 37.7148 0.671573 37.7148 1.5C37.7148 2.32843 37.0432 3 36.2148 3C35.3863 3 34.7138 2.32843 34.7138 1.5ZM46.2852 1.5C46.2852 0.671573 46.9568 0 47.7852 0C48.6137 0 49.2862 0.671573 49.2862 1.5C49.2862 2.32843 48.6146 3 47.7862 3C46.9578 3 46.2852 2.32843 46.2852 1.5ZM57.8567 1.5C57.8567 0.671573 58.5282 0 59.3567 0C60.1851 0 60.8576 0.671573 60.8576 1.5C60.8576 2.32843 60.1861 3 59.3576 3C58.5292 3 57.8567 2.32843 57.8567 1.5ZM69.4281 1.5C69.4281 0.671573 70.0997 0 70.9281 0C71.7565 0 72.4291 0.671573 72.4291 1.5C72.4291 2.32843 71.7575 3 70.9291 3C70.1006 3 69.4281 2.32843 69.4281 1.5ZM80.9995 1.5C80.9995 0.671573 81.6711 0 82.4995 0C83.3279 0 84 0.671573 84 1.5C84 2.32843 83.3284 3 82.5 3C81.6716 3 80.9995 2.32843 80.9995 1.5Z" fill="white"/>
<path d="M92.8567 1.5C92.8567 0.671573 93.5282 0 94.3567 0C95.1851 0 95.8576 0.671573 95.8576 1.5C95.8576 2.32843 95.1861 3 94.3576 3C93.5292 3 92.8567 2.32843 92.8567 1.5Z" fill="white"/>
<path d="M104.428 1.5C104.428 0.671573 105.1 0 105.928 0C106.757 0 107.429 0.671573 107.429 1.5C107.429 2.32843 106.757 3 105.929 3C105.101 3 104.428 2.32843 104.428 1.5Z" fill="white"/>
<path d="M116 1.5C116 0.671573 116.671 0 117.5 0C118.328 0 119 0.671573 119 1.5C119 2.32843 118.328 3 117.5 3C116.672 3 116 2.32843 116 1.5Z" fill="white"/>
</svg>
