<svg width="40" height="40" viewBox="0 0 40 40" fill="none" xmlns="http://www.w3.org/2000/svg">
<path d="M20 0L21.2546 12.0787L26.1803 0.97887L23.641 12.8541L31.7557 3.81966L25.671 14.329L36.1803 8.2443L27.1459 16.359L39.0211 13.8197L27.9213 18.7454L40 20L27.9213 21.2546L39.0211 26.1803L27.1459 23.641L36.1803 31.7557L25.671 25.671L31.7557 36.1803L23.641 27.1459L26.1803 39.0211L21.2546 27.9213L20 40L18.7454 27.9213L13.8197 39.0211L16.359 27.1459L8.2443 36.1803L14.329 25.671L3.81966 31.7557L12.8541 23.641L0.97887 26.1803L12.0787 21.2546L0 20L12.0787 18.7454L0.97887 13.8197L12.8541 16.359L3.81966 8.2443L14.329 14.329L8.2443 3.81966L16.359 12.8541L13.8197 0.97887L18.7454 12.0787L20 0Z" fill="#F2FF9F"/>
</svg>
