<svg width="275" height="590" viewBox="0 0 275 590" fill="none" xmlns="http://www.w3.org/2000/svg">
<path d="M5.91043 93.5384C5.3833 92.9974 4.63421 92.7061 3.76027 92.7061H3.71865C1.97078 92.7061 0.777787 93.8713 0.763915 95.6469C0.750043 97.4225 1.92916 98.6294 3.70478 98.6433C4.63421 98.6433 5.32781 98.3797 5.86882 97.8526C6.40983 97.3254 6.70114 96.5763 6.70114 95.7024C6.70114 94.8285 6.43757 94.0794 5.91043 93.5384Z" fill="white"/>
<path d="M15.1768 105.733C13.4428 105.719 12.1943 106.898 12.1804 108.673C12.1665 110.449 13.3457 111.656 15.1213 111.67C16.023 111.67 16.7443 111.406 17.2853 110.879C17.8263 110.352 18.1176 109.603 18.1176 108.729C18.1315 106.953 16.9524 105.746 15.1768 105.733Z" fill="white"/>
<path d="M48.5253 58.125H48.4837C47.6236 58.125 46.8884 58.4024 46.3612 58.9157C45.8202 59.4428 45.5289 60.1919 45.5289 61.0659C45.5289 61.9398 45.7925 62.6889 46.3196 63.2299C46.8468 63.7709 47.5959 64.0622 48.4698 64.0622H48.5114C50.2732 64.0622 51.4523 62.8831 51.4662 61.1214C51.48 59.3457 50.3009 58.1389 48.5253 58.125Z" fill="white"/>
<path d="M33.0717 114.902H33.1133C34.8751 114.902 36.0542 113.723 36.0681 111.961C36.0681 111.087 35.8045 110.338 35.2774 109.797C34.7502 109.256 34.0012 108.965 33.1272 108.965C31.3239 108.965 30.1447 110.13 30.1309 111.906C30.117 113.681 31.2961 114.888 33.0717 114.902Z" fill="white"/>
<path d="M61.2874 70.3867H61.2458C59.484 70.3867 58.3049 71.5658 58.291 73.3276C58.291 74.2015 58.5546 74.9506 59.0817 75.4916C59.6089 76.0326 60.3579 76.3239 61.2319 76.3239H61.2735C63.0352 76.3239 64.2144 75.1448 64.2282 73.3831C64.2421 71.6075 63.063 70.4006 61.2874 70.3867Z" fill="white"/>
<path d="M51.7156 109.741C52.5341 109.741 53.3387 109.477 53.8797 108.95C54.4207 108.423 54.712 107.674 54.712 106.8C54.7259 105.024 53.5468 103.818 51.7711 103.804H51.7295C49.9678 103.804 48.7887 104.983 48.7748 106.745C48.7609 108.52 49.94 109.727 51.7156 109.741Z" fill="white"/>
<path d="M62.8966 88.3789H62.855C61.9949 88.3789 61.2597 88.6563 60.7326 89.1696C60.1916 89.6967 59.9003 90.4458 59.9003 91.3198C59.9003 92.1937 60.1638 92.9428 60.691 93.4838C61.2181 94.0248 61.9672 94.3161 62.8411 94.3161H62.8827C64.6445 94.3161 65.8236 93.137 65.8375 91.3753C65.8514 89.5996 64.6722 88.3928 62.8966 88.3789Z" fill="white"/>
<path d="M58.6656 19.4489H58.7072C60.469 19.4489 61.6481 18.2698 61.662 16.5081C61.6758 14.7325 60.4967 13.5256 58.7211 13.5117H58.6795C56.9177 13.5117 55.7386 14.6908 55.7247 16.4526C55.7109 18.2282 56.89 19.4351 58.6656 19.4489Z" fill="white"/>
<path d="M43.6977 6.93693C44.2248 7.47794 44.9739 7.76925 45.8479 7.76925H45.8895C47.6512 7.76925 48.8303 6.59013 48.8442 4.82839C48.8581 3.05277 47.679 1.8459 45.9033 1.83203H45.8617C45.0017 1.83203 44.2664 2.10947 43.7393 2.62274C43.1983 3.14987 42.907 3.89896 42.907 4.7729C42.907 5.64684 43.1706 6.39592 43.6977 6.93693Z" fill="white"/>
<path d="M25.7472 5.1049C26.2744 5.64591 27.0235 5.93722 27.8974 5.93722H27.939C29.7008 5.93722 30.8799 4.7581 30.8938 2.99636C30.9076 1.22074 29.7285 0.013872 27.9529 0H27.9113C27.0512 0 26.316 0.27744 25.7889 0.790705C25.2479 1.31784 24.9565 2.06693 24.9565 2.94087C24.9565 3.8148 25.2201 4.56389 25.7472 5.1049Z" fill="white"/>
<path d="M13.6232 41.4785H13.5816C12.7215 41.4785 11.9863 41.756 11.4592 42.2692C10.9181 42.7964 10.6268 43.5454 10.6268 44.4194C10.6268 45.2933 10.8904 46.0424 11.4175 46.5834C11.9447 47.1244 12.6938 47.4157 13.5677 47.4157H13.6093C15.3711 47.4157 16.5502 46.2366 16.5641 44.4749C16.5779 42.6993 15.3988 41.4924 13.6232 41.4785Z" fill="white"/>
<path d="M33.7793 50.9808C33.2522 50.4397 32.5031 50.1484 31.6292 50.1484H31.5875C30.7275 50.1484 29.9923 50.4259 29.4651 50.9391C28.9241 51.4663 28.6328 52.2154 28.6328 53.0893C28.6189 54.8649 29.7981 56.0718 31.5737 56.0857C32.4476 56.1273 33.1967 55.8221 33.7377 55.295C34.2787 54.7678 34.57 54.0187 34.57 53.1448C34.57 52.2709 34.3065 51.5218 33.7793 50.9808Z" fill="white"/>
<path d="M8.46282 13.0395C8.98996 13.5805 9.73905 13.8718 10.613 13.8718H10.6546C12.4163 13.8718 13.5955 12.6927 13.6093 10.9309C13.6232 9.15531 12.4441 7.94844 10.6685 7.93457H10.6269C8.86511 7.93457 7.68599 9.11369 7.67212 10.8754C7.67212 11.7494 7.93569 12.4985 8.46282 13.0395Z" fill="white"/>
<path d="M5.0641 24.8164H5.02249C4.16242 24.8164 3.42721 25.0938 2.90007 25.6071C2.35906 26.1342 2.06775 26.8833 2.06775 27.7573C2.06775 28.6312 2.33132 29.3803 2.85845 29.9213C3.38559 30.4623 4.13468 30.7536 5.00862 30.7536H5.05023C6.81198 30.7536 7.9911 29.5745 8.00497 27.8128C8.01884 26.0371 6.83972 24.8303 5.0641 24.8164Z" fill="white"/>
<path d="M153.425 111.338H153.467C155.229 111.338 156.408 110.158 156.422 108.397C156.436 106.621 155.256 105.414 153.481 105.4H153.439C152.579 105.4 151.844 105.678 151.317 106.191C150.776 106.718 150.484 107.467 150.484 108.341C150.484 109.215 150.748 109.964 151.275 110.505C151.802 111.046 152.551 111.338 153.425 111.338Z" fill="white"/>
<path d="M165.12 23.7348C165.647 24.2758 166.396 24.5671 167.27 24.5671H167.311C169.073 24.5671 170.252 23.388 170.266 21.6262C170.28 19.8506 169.101 18.6438 167.325 18.6299H167.284C166.424 18.6299 165.688 18.9073 165.161 19.4206C164.62 19.9477 164.329 20.6968 164.329 21.5707C164.329 22.4447 164.592 23.1938 165.12 23.7348Z" fill="white"/>
<path d="M103.722 90.7786C103.195 90.2376 102.446 89.9463 101.572 89.9463H101.53C100.67 89.9463 99.9349 90.2237 99.4078 90.737C98.8667 91.2641 98.5754 92.0132 98.5754 92.8872C98.5754 93.7611 98.839 94.5102 99.3661 95.0512C99.8933 95.5922 100.642 95.8835 101.516 95.8835C102.418 95.8835 103.139 95.62 103.68 95.0928C104.221 94.5657 104.513 93.8166 104.513 92.9426C104.513 92.0687 104.249 91.3196 103.722 90.7786Z" fill="white"/>
<path d="M99.6298 77.8913H99.6715C101.433 77.8913 102.612 76.7122 102.626 74.9505C102.64 73.1748 101.461 71.968 99.6853 71.9541H99.6437C98.7836 71.9541 98.0484 72.2315 97.5213 72.7448C96.9803 73.2719 96.689 74.021 96.689 74.895C96.689 75.7689 96.9525 76.518 97.4797 77.059C98.0068 77.6 98.7559 77.8913 99.6298 77.8913Z" fill="white"/>
<path d="M164.551 96.4519C165.425 96.4519 166.174 96.1883 166.715 95.6612C167.256 95.134 167.547 94.3849 167.547 93.511C167.547 92.6371 167.284 91.888 166.757 91.347C166.229 90.806 165.48 90.5146 164.606 90.5146H164.565C162.803 90.5146 161.624 91.6938 161.61 93.4555C161.596 95.2311 162.775 96.438 164.551 96.4519Z" fill="white"/>
<path d="M112.364 110.963C113.238 111.004 113.987 110.699 114.528 110.172C115.069 109.645 115.361 108.896 115.361 108.022C115.361 107.148 115.097 106.399 114.57 105.858C114.043 105.317 113.294 105.025 112.42 105.025H112.378C110.616 105.025 109.437 106.205 109.423 107.966C109.41 109.742 110.589 110.949 112.364 110.963Z" fill="white"/>
<path d="M166.77 78.5007H166.812C168.574 78.5007 169.753 77.3216 169.767 75.5598C169.78 73.7842 168.601 72.5773 166.826 72.5635H166.784C165.022 72.5635 163.843 73.7426 163.829 75.5043C163.815 77.28 164.995 78.4868 166.77 78.5007Z" fill="white"/>
<path d="M132.853 115.818C133.727 115.846 134.476 115.555 135.017 115.027C135.558 114.5 135.849 113.751 135.849 112.877C135.849 112.003 135.586 111.254 135.059 110.713C134.532 110.172 133.783 109.881 132.909 109.881H132.867C131.105 109.881 129.926 111.06 129.912 112.822C129.898 114.597 131.077 115.804 132.853 115.818Z" fill="white"/>
<path d="M165.272 5.75627C165.799 6.29728 166.548 6.58859 167.422 6.58859H167.464C169.226 6.58859 170.405 5.40947 170.419 3.64772C170.432 1.8721 169.253 0.665239 167.478 0.651367H167.436C166.576 0.651367 165.841 0.928807 165.314 1.44207C164.773 1.96921 164.481 2.7183 164.481 3.59223C164.481 4.46617 164.745 5.21526 165.272 5.75627Z" fill="white"/>
<path d="M97.9789 23.1254C98.5061 23.6664 99.2552 23.9577 100.129 23.9577H100.171C101.031 23.9577 101.766 23.6803 102.293 23.167C102.834 22.6399 103.125 21.8908 103.125 21.0169C103.125 20.1429 102.862 19.3938 102.335 18.8528C101.808 18.3118 101.059 18.0205 100.185 18.0205H100.143C99.2829 18.0205 98.5477 18.2979 98.0206 18.8112C97.4795 19.3384 97.1882 20.0874 97.1882 20.9614C97.1882 21.8353 97.4518 22.5844 97.9789 23.1254Z" fill="white"/>
<path d="M98.1315 5.14689C98.6587 5.6879 99.4077 5.97921 100.282 5.97921C101.169 6.00696 101.905 5.71565 102.446 5.18851C102.987 4.66137 103.278 3.91228 103.278 3.03835C103.278 2.16441 103.014 1.41532 102.487 0.874313C101.96 0.333305 101.211 0.0419922 100.337 0.0419922H100.296C99.4355 0.0419922 98.7003 0.319433 98.1731 0.832697C97.6321 1.35983 97.3408 2.10892 97.3408 2.98286C97.3408 3.8568 97.6044 4.60589 98.1315 5.14689Z" fill="white"/>
<path d="M99.9627 41.9353C100.892 41.963 101.586 41.6717 102.127 41.1446C102.668 40.6174 102.959 39.8683 102.959 38.9944C102.959 38.1205 102.696 37.3714 102.168 36.8304C101.641 36.2894 100.892 35.998 100.018 35.998H99.9766C99.1165 35.998 98.3813 36.2755 97.8542 36.7888C97.3132 37.3159 97.0219 38.065 97.0219 38.9389C97.0219 39.8128 97.2854 40.5619 97.8126 41.1029C98.3397 41.644 99.0888 41.9353 99.9627 41.9353Z" fill="white"/>
<path d="M167.089 42.5446H167.131C168.893 42.5446 170.072 41.3655 170.086 39.6038C170.1 37.8282 168.921 36.6213 167.145 36.6074H167.103C166.243 36.6074 165.508 36.8849 164.981 37.3981C164.44 37.9253 164.149 38.6744 164.149 39.5483C164.149 40.4222 164.412 41.1713 164.939 41.7123C165.466 42.2533 166.215 42.5446 167.089 42.5446Z" fill="white"/>
<path d="M97.6461 59.0815C98.1732 59.6225 98.9223 59.9138 99.7962 59.9138C100.684 59.9277 101.419 59.6502 101.96 59.1231C102.501 58.5959 102.793 57.8469 102.793 56.9729C102.793 56.099 102.529 55.3499 102.002 54.8089C101.475 54.2679 100.726 53.9766 99.8517 53.9766H99.8101C98.95 53.9766 98.2148 54.254 97.6877 54.7673C97.1467 55.2944 96.8553 56.0435 96.8553 56.9174C96.8553 57.7914 97.1189 58.5405 97.6461 59.0815Z" fill="white"/>
<path d="M166.937 60.5232H166.978C168.74 60.5232 169.919 59.344 169.933 57.5823C169.947 55.8067 168.768 54.5998 166.992 54.5859H166.951C166.091 54.5859 165.355 54.8634 164.828 55.3766C164.287 55.9038 163.996 56.6529 163.996 57.5268C163.996 58.4007 164.259 59.1498 164.787 59.6908C165.314 60.2318 166.063 60.5232 166.937 60.5232Z" fill="white"/>
<path d="M204.71 42.8913C205.626 42.9191 206.333 42.6278 206.874 42.1006C207.415 41.5735 207.707 40.8244 207.707 39.9505C207.72 38.1748 206.541 36.968 204.766 36.9541H204.724C203.864 36.9541 203.129 37.2315 202.602 37.7448C202.061 38.2719 201.769 39.021 201.769 39.895C201.769 40.7689 202.033 41.518 202.56 42.059C203.087 42.6 203.836 42.8913 204.71 42.8913Z" fill="white"/>
<path d="M271.143 73.5078H271.102C270.242 73.5078 269.506 73.7853 268.979 74.2985C268.438 74.8257 268.147 75.5747 268.147 76.4487C268.147 77.3226 268.411 78.0717 268.938 78.6127C269.465 79.1537 270.214 79.445 271.088 79.445H271.129C272.891 79.445 274.07 78.2659 274.084 76.5042C274.098 74.7285 272.919 73.5217 271.143 73.5078Z" fill="white"/>
<path d="M202.893 6.10295C203.42 6.64396 204.169 6.93527 205.043 6.93527C205.917 6.97688 206.666 6.6717 207.207 6.14456C207.748 5.61743 208.04 4.86834 208.04 3.9944C208.04 3.12047 207.776 2.37138 207.249 1.83037C206.722 1.28936 205.973 0.998047 205.099 0.998047H205.057C204.197 0.998047 203.462 1.27549 202.935 1.78875C202.394 2.31589 202.102 3.06498 202.102 3.93891C202.102 4.81285 202.366 5.56194 202.893 6.10295Z" fill="white"/>
<path d="M270.81 109.464H270.769C269.007 109.464 267.828 110.643 267.814 112.405C267.814 113.279 268.078 114.028 268.605 114.569C269.132 115.11 269.881 115.401 270.755 115.401H270.796C272.558 115.401 273.737 114.222 273.751 112.46C273.765 110.685 272.586 109.478 270.81 109.464Z" fill="white"/>
<path d="M226.559 39.0639C227.086 39.6049 227.835 39.8962 228.709 39.8962C229.597 39.924 230.332 39.6326 230.873 39.1055C231.414 38.5784 231.705 37.8293 231.705 36.9553C231.705 36.0814 231.441 35.3323 230.914 34.7913C230.387 34.2503 229.638 33.959 228.764 33.959H228.723C227.863 33.959 227.127 34.2364 226.6 34.7497C226.059 35.2768 225.768 36.0259 225.768 36.8999C225.768 37.7738 226.031 38.5229 226.559 39.0639Z" fill="white"/>
<path d="M269.603 6.7006C270.131 7.24161 270.88 7.53293 271.754 7.53293C272.614 7.53293 273.377 7.26936 273.918 6.74222C274.459 6.21508 274.75 5.466 274.75 4.59206C274.75 3.71812 274.486 2.96903 273.959 2.42802C273.432 1.88702 272.683 1.5957 271.809 1.5957H271.767C270.907 1.5957 270.172 1.87314 269.645 2.38641C269.104 2.91354 268.813 3.66263 268.813 4.53657C268.813 5.41051 269.076 6.1596 269.603 6.7006Z" fill="white"/>
<path d="M273.779 20.4202C273.252 19.8792 272.503 19.5879 271.629 19.5879H271.587C270.727 19.5879 269.992 19.8653 269.465 20.3786C268.924 20.9057 268.632 21.6548 268.632 22.5288C268.632 23.4027 268.896 24.1518 269.423 24.6928C269.95 25.2338 270.699 25.5251 271.573 25.5251C272.392 25.5251 273.196 25.2615 273.737 24.7344C274.278 24.2073 274.57 23.4582 274.57 22.5842C274.57 21.7103 274.306 20.9612 273.779 20.4202Z" fill="white"/>
<path d="M248.102 74.7976H248.144C249.905 74.7976 251.084 73.6185 251.098 71.8567C251.112 70.0811 249.933 68.8742 248.157 68.8604H248.116C246.354 68.8604 245.175 70.0395 245.161 71.8012C245.147 73.5768 246.326 74.7837 248.102 74.7976Z" fill="white"/>
<path d="M216.002 20.5307C216.529 21.0717 217.278 21.363 218.152 21.363H218.194C219.956 21.363 221.135 20.1839 221.149 18.4221C221.162 16.6465 219.983 15.4397 218.208 15.4258H218.166C217.306 15.4258 216.571 15.7032 216.044 16.2165C215.503 16.7436 215.211 17.4927 215.211 18.3666C215.211 19.2406 215.475 19.9897 216.002 20.5307Z" fill="white"/>
<path d="M271.462 37.5654H271.421C270.561 37.5654 269.825 37.8429 269.298 38.3561C268.757 38.8833 268.466 39.6324 268.466 40.5063C268.466 41.3802 268.73 42.1293 269.257 42.6703C269.784 43.2113 270.533 43.5027 271.407 43.5027H271.448C273.21 43.5027 274.389 42.3235 274.403 40.5618C274.417 38.7862 273.238 37.5793 271.462 37.5654Z" fill="white"/>
<path d="M204.558 60.8708H204.599C206.361 60.8708 207.54 59.6917 207.554 57.9299C207.568 56.1543 206.389 54.9475 204.613 54.9336H204.572C203.712 54.9336 202.976 55.211 202.449 55.7243C201.908 56.2514 201.617 57.0005 201.617 57.8745C201.617 58.7484 201.88 59.4975 202.408 60.0385C202.935 60.5795 203.684 60.8708 204.558 60.8708Z" fill="white"/>
<path d="M255.204 91.3608C255.732 91.9018 256.481 92.1931 257.355 92.1931H257.396C259.158 92.1931 260.337 91.014 260.351 89.2522C260.365 87.4766 259.186 86.2697 257.41 86.2559H257.368C256.508 86.2559 255.773 86.5333 255.246 87.0466C254.705 87.5737 254.414 88.3228 254.414 89.1967C254.414 90.0707 254.677 90.8198 255.204 91.3608Z" fill="white"/>
<path d="M270.977 91.4863H270.935C269.187 91.4863 267.994 92.6655 267.98 94.4272C267.98 95.3011 268.244 96.0502 268.771 96.5912C269.298 97.1322 270.047 97.4236 270.921 97.4236H270.963C272.725 97.4236 273.904 96.2444 273.918 94.4827C273.932 92.7071 272.752 91.5002 270.977 91.4863Z" fill="white"/>
<path d="M204.877 24.9128C205.723 24.9544 206.5 24.6492 207.041 24.1221C207.582 23.595 207.873 22.8459 207.873 21.9719C207.873 21.098 207.609 20.3489 207.082 19.8079C206.555 19.2669 205.806 18.9756 204.932 18.9756H204.891C204.03 18.9756 203.295 19.253 202.768 19.7663C202.227 20.2934 201.936 21.0425 201.936 21.9165C201.936 22.7904 202.199 23.5395 202.726 24.0805C203.254 24.6215 204.003 24.9128 204.877 24.9128Z" fill="white"/>
<path d="M271.296 55.5439H271.254C270.394 55.5439 269.659 55.8214 269.132 56.3346C268.591 56.8618 268.3 57.6109 268.3 58.4848C268.3 59.3587 268.563 60.1078 269.09 60.6488C269.617 61.1899 270.366 61.4812 271.24 61.4812H271.282C273.044 61.4812 274.223 60.302 274.237 58.5403C274.251 56.7647 273.072 55.5578 271.296 55.5439Z" fill="white"/>
<path d="M235.561 55.683C236.089 56.224 236.838 56.5154 237.712 56.5154C238.586 56.5431 239.335 56.2518 239.876 55.7246C240.417 55.1975 240.708 54.4484 240.708 53.5745C240.708 52.7005 240.444 51.9515 239.917 51.4104C239.39 50.8694 238.641 50.5781 237.767 50.5781H237.725C236.865 50.5781 236.13 50.8556 235.603 51.3688C235.062 51.896 234.771 52.6451 234.771 53.519C234.771 54.3929 235.034 55.142 235.561 55.683Z" fill="white"/>
<path d="M201.922 113.958C202.449 114.499 203.198 114.791 204.072 114.791H204.114C205.875 114.791 207.054 113.612 207.068 111.85C207.082 110.074 205.903 108.867 204.127 108.854H204.086C202.338 108.854 201.145 110.033 201.131 111.794C201.131 112.668 201.395 113.417 201.922 113.958Z" fill="white"/>
<path d="M204.391 78.8474H204.433C206.195 78.8474 207.374 77.6683 207.388 75.9065C207.401 74.1309 206.222 72.924 204.447 72.9102H204.405C203.545 72.9102 202.81 73.1876 202.283 73.7009C201.742 74.228 201.45 74.9771 201.45 75.851C201.45 76.725 201.714 77.474 202.241 78.0151C202.768 78.5561 203.517 78.8474 204.391 78.8474Z" fill="white"/>
<path d="M204.225 96.8122H204.266C206.028 96.8122 207.207 95.6331 207.221 93.8713C207.235 92.0957 206.056 90.8889 204.28 90.875H204.239C203.379 90.875 202.643 91.1524 202.116 91.6657C201.575 92.1928 201.284 92.9419 201.284 93.8159C201.284 94.6898 201.547 95.4389 202.075 95.9799C202.602 96.5209 203.351 96.8122 204.225 96.8122Z" fill="white"/>
<path d="M13.1378 253.396C11.3622 253.396 10.1692 254.589 10.1692 256.364C10.1692 258.14 11.3622 259.333 13.1378 259.333C14.9134 259.333 16.1064 258.14 16.1064 256.364C16.1064 254.589 14.9134 253.396 13.1378 253.396Z" fill="white"/>
<path d="M27.6477 269.293C27.6477 267.517 26.4547 266.324 24.6791 266.324C22.9034 266.324 21.7104 267.517 21.7104 269.293C21.7104 271.068 22.9034 272.261 24.6791 272.261C26.4547 272.261 27.6477 271.068 27.6477 269.293Z" fill="white"/>
<path d="M57.5835 224.319C59.3591 224.319 60.5521 223.126 60.5521 221.35C60.5521 219.575 59.3591 218.382 57.5835 218.382C55.8079 218.382 54.6149 219.575 54.6149 221.35C54.6149 223.126 55.8079 224.319 57.5835 224.319Z" fill="white"/>
<path d="M45.6261 272.345C45.6261 270.569 44.4331 269.376 42.6575 269.376C40.8818 269.376 39.6888 270.569 39.6888 272.345C39.6888 274.12 40.8818 275.313 42.6575 275.313C44.4331 275.313 45.6261 274.12 45.6261 272.345Z" fill="white"/>
<path d="M67.4882 233.504C67.4882 235.279 68.6812 236.472 70.4568 236.472C72.2324 236.472 73.4254 235.279 73.4254 233.504C73.4254 231.728 72.2324 230.535 70.4568 230.535C68.6812 230.535 67.4882 231.728 67.4882 233.504Z" fill="white"/>
<path d="M61.2458 264.05C59.4702 264.05 58.2772 265.243 58.2772 267.018C58.2772 268.794 59.4702 269.987 61.2458 269.987C63.0214 269.987 64.2144 268.794 64.2144 267.018C64.2144 265.243 63.0214 264.05 61.2458 264.05Z" fill="white"/>
<path d="M72.2324 254.45C74.008 254.45 75.201 253.257 75.201 251.481C75.201 249.706 74.008 248.513 72.2324 248.513C70.4568 248.513 69.2638 249.706 69.2638 251.481C69.2638 253.257 70.4568 254.45 72.2324 254.45Z" fill="white"/>
<path d="M64.3948 176.641C64.3948 178.417 65.5878 179.61 67.3634 179.61C69.139 179.61 70.332 178.417 70.332 176.641C70.332 174.866 69.139 173.673 67.3634 173.673C65.5878 173.673 64.3948 174.866 64.3948 176.641Z" fill="white"/>
<path d="M51.4661 165.099C51.4661 166.875 52.6591 168.068 54.4347 168.068C56.2103 168.068 57.4033 166.875 57.4033 165.099C57.4033 163.324 56.2103 162.131 54.4347 162.131C52.6591 162.131 51.4661 163.324 51.4661 165.099Z" fill="white"/>
<path d="M33.4879 163.435C33.4879 165.211 34.6809 166.404 36.4565 166.404C38.2321 166.404 39.4251 165.211 39.4251 163.435C39.4251 161.66 38.2321 160.467 36.4565 160.467C34.6809 160.467 33.4879 161.66 33.4879 163.435Z" fill="white"/>
<path d="M22.5292 208.006C24.3048 208.006 25.4978 206.813 25.4978 205.037C25.4978 203.261 24.3048 202.068 22.5292 202.068C20.7535 202.068 19.5605 203.261 19.5605 205.037C19.5605 206.813 20.7535 208.006 22.5292 208.006Z" fill="white"/>
<path d="M37.6495 213.527C37.6495 214.401 37.927 215.15 38.468 215.677C38.9951 216.205 39.7442 216.496 40.6181 216.496C42.3938 216.496 43.5868 215.303 43.5868 213.527C43.5868 211.752 42.3938 210.559 40.6181 210.559C38.8425 210.559 37.6495 211.752 37.6495 213.527Z" fill="white"/>
<path d="M19.2552 168.554C17.4796 168.554 16.2866 169.747 16.2866 171.522C16.2866 173.298 17.4796 174.491 19.2552 174.491C21.0309 174.491 22.2238 173.298 22.2238 171.522C22.2238 169.747 21.0309 168.554 19.2552 168.554Z" fill="white"/>
<path d="M13.8175 185.478C12.0419 185.478 10.8489 186.671 10.8489 188.446C10.8489 190.222 12.0419 191.415 13.8175 191.415C15.5931 191.415 16.7861 190.222 16.7861 188.446C16.7861 186.671 15.5931 185.478 13.8175 185.478Z" fill="white"/>
<path d="M107.967 164.419C107.967 166.194 109.16 167.387 110.935 167.387C112.711 167.387 113.904 166.194 113.904 164.419C113.904 162.643 112.711 161.45 110.935 161.45C109.16 161.45 107.967 162.643 107.967 164.419Z" fill="white"/>
<path d="M125.945 236.334C125.945 238.109 127.138 239.302 128.913 239.302C130.689 239.302 131.882 238.109 131.882 236.334C131.882 234.558 130.689 233.365 128.913 233.365C127.138 233.365 125.945 234.558 125.945 236.334Z" fill="white"/>
<path d="M125.945 164.419C125.945 166.194 127.138 167.387 128.913 167.387C130.689 167.387 131.882 166.194 131.882 164.419C131.882 162.643 130.689 161.45 128.913 161.45C127.138 161.45 125.945 162.643 125.945 164.419Z" fill="white"/>
<path d="M125.945 182.399C125.945 184.175 127.138 185.368 128.913 185.368C130.689 185.368 131.882 184.175 131.882 182.399C131.882 180.624 130.689 179.431 128.913 179.431C127.138 179.431 125.945 180.624 125.945 182.399Z" fill="white"/>
<path d="M125.945 218.355C125.945 220.131 127.138 221.324 128.913 221.324C130.689 221.324 131.882 220.131 131.882 218.355C131.882 216.58 130.689 215.387 128.913 215.387C127.138 215.387 125.945 216.58 125.945 218.355Z" fill="white"/>
<path d="M125.945 200.378C125.945 202.153 127.138 203.346 128.913 203.346C130.689 203.346 131.882 202.153 131.882 200.378C131.882 198.602 130.689 197.409 128.913 197.409C127.138 197.409 125.945 198.602 125.945 200.378Z" fill="white"/>
<path d="M125.945 272.29C125.945 274.066 127.138 275.259 128.913 275.259C130.689 275.259 131.882 274.066 131.882 272.29C131.882 270.514 130.689 269.321 128.913 269.321C127.138 269.321 125.945 270.514 125.945 272.29Z" fill="white"/>
<path d="M125.945 254.311C125.945 256.087 127.138 257.28 128.913 257.28C130.689 257.28 131.882 256.087 131.882 254.311C131.882 252.536 130.689 251.343 128.913 251.343C127.138 251.343 125.945 252.536 125.945 254.311Z" fill="white"/>
<path d="M89.9885 164.419C89.9885 166.194 91.1815 167.387 92.9571 167.387C94.7328 167.387 95.9257 166.194 95.9257 164.419C95.9257 162.643 94.7328 161.45 92.9571 161.45C91.1815 161.45 89.9885 162.643 89.9885 164.419Z" fill="white"/>
<path d="M164.87 161.45C163.094 161.45 161.901 162.643 161.901 164.419C161.901 166.194 163.094 167.387 164.87 167.387C166.645 167.387 167.838 166.194 167.838 164.419C167.838 162.643 166.645 161.45 164.87 161.45Z" fill="white"/>
<path d="M143.923 164.419C143.923 166.194 145.116 167.387 146.892 167.387C148.667 167.387 149.86 166.194 149.86 164.419C149.86 162.643 148.667 161.45 146.892 161.45C145.116 161.45 143.923 162.643 143.923 164.419Z" fill="white"/>
<path d="M193.613 203.346C195.388 203.346 196.581 202.153 196.581 200.378C196.581 198.602 195.388 197.409 193.613 197.409C191.837 197.409 190.644 198.602 190.644 200.378C190.644 202.153 191.837 203.346 193.613 203.346Z" fill="white"/>
<path d="M266.843 191.387C266.843 189.611 265.65 188.418 263.874 188.418C262.099 188.418 260.906 189.611 260.906 191.387C260.906 193.162 262.099 194.355 263.874 194.355C265.65 194.355 266.843 193.162 266.843 191.387Z" fill="white"/>
<path d="M210.536 216.885C208.761 216.885 207.568 218.078 207.568 219.853C207.568 221.629 208.761 222.822 210.536 222.822C212.312 222.822 213.505 221.629 213.505 219.853C213.505 218.078 212.312 216.885 210.536 216.885Z" fill="white"/>
<path d="M211.591 167.387C213.366 167.387 214.559 166.194 214.559 164.419C214.559 162.643 213.366 161.45 211.591 161.45C209.815 161.45 208.622 162.643 208.622 164.419C208.622 166.194 209.815 167.387 211.591 167.387Z" fill="white"/>
<path d="M262.681 174.907C262.681 173.131 261.488 171.938 259.713 171.938C257.937 171.938 256.744 173.131 256.744 174.907C256.744 176.683 257.937 177.876 259.713 177.876C261.488 177.876 262.681 176.683 262.681 174.907Z" fill="white"/>
<path d="M259.907 258.306C259.907 256.53 258.714 255.337 256.938 255.337C255.163 255.337 253.97 256.53 253.97 258.306C253.97 260.081 255.163 261.274 256.938 261.274C258.714 261.274 259.907 260.081 259.907 258.306Z" fill="white"/>
<path d="M265.137 269.321C263.361 269.321 262.168 270.514 262.168 272.29C262.168 274.066 263.361 275.259 265.137 275.259C266.912 275.259 268.105 274.066 268.105 272.29C268.105 270.514 266.912 269.321 265.137 269.321Z" fill="white"/>
<path d="M193.613 185.368C195.388 185.368 196.581 184.175 196.581 182.399C196.581 180.624 195.388 179.431 193.613 179.431C191.837 179.431 190.644 180.624 190.644 182.399C190.644 184.175 191.837 185.368 193.613 185.368Z" fill="white"/>
<path d="M193.613 167.387C195.388 167.387 196.581 166.194 196.581 164.419C196.581 162.643 195.388 161.45 193.613 161.45C191.837 161.45 190.644 162.643 190.644 164.419C190.644 166.194 191.837 167.387 193.613 167.387Z" fill="white"/>
<path d="M242.525 231.06C242.525 229.285 241.332 228.092 239.557 228.092C237.781 228.092 236.588 229.285 236.588 231.06C236.588 232.836 237.781 234.029 239.557 234.029C241.332 234.029 242.525 232.836 242.525 231.06Z" fill="white"/>
<path d="M251.847 245.433C251.847 243.658 250.654 242.465 248.879 242.465C247.103 242.465 245.91 243.658 245.91 245.433C245.91 247.209 247.103 248.402 248.879 248.402C250.654 248.402 251.847 247.209 251.847 245.433Z" fill="white"/>
<path d="M193.613 257.28C195.388 257.28 196.581 256.087 196.581 254.311C196.581 252.536 195.388 251.343 193.613 251.343C191.837 251.343 190.644 252.536 190.644 254.311C190.644 256.087 191.837 257.28 193.613 257.28Z" fill="white"/>
<path d="M246.95 169.053C248.726 169.053 249.919 167.86 249.919 166.085C249.919 164.309 248.726 163.116 246.95 163.116C245.175 163.116 243.982 164.309 243.982 166.085C243.982 167.86 245.175 169.053 246.95 169.053Z" fill="white"/>
<path d="M193.613 239.302C195.388 239.302 196.581 238.109 196.581 236.334C196.581 234.558 195.388 233.365 193.613 233.365C191.837 233.365 190.644 234.558 190.644 236.334C190.644 238.109 191.837 239.302 193.613 239.302Z" fill="white"/>
<path d="M259.713 211.002C261.352 211.002 262.681 209.673 262.681 208.033C262.681 206.394 261.352 205.064 259.713 205.064C258.073 205.064 256.744 206.394 256.744 208.033C256.744 209.673 258.073 211.002 259.713 211.002Z" fill="white"/>
<path d="M246.895 221.046C248.671 221.046 249.864 219.853 249.864 218.077C249.864 216.301 248.671 215.108 246.895 215.108C245.119 215.108 243.926 216.301 243.926 218.077C243.926 219.853 245.119 221.046 246.895 221.046Z" fill="white"/>
<path d="M193.613 221.324C195.388 221.324 196.581 220.131 196.581 218.355C196.581 216.58 195.388 215.387 193.613 215.387C191.837 215.387 190.644 216.58 190.644 218.355C190.644 220.131 191.837 221.324 193.613 221.324Z" fill="white"/>
<path d="M193.613 275.259C195.388 275.259 196.581 274.066 196.581 272.29C196.581 270.514 195.388 269.321 193.613 269.321C191.837 269.321 190.644 270.514 190.644 272.29C190.644 274.066 191.837 275.259 193.613 275.259Z" fill="white"/>
<path d="M232.607 164.419C232.607 162.643 231.414 161.45 229.638 161.45C227.863 161.45 226.67 162.643 226.67 164.419C226.67 166.194 227.863 167.387 229.638 167.387C231.414 167.387 232.607 166.194 232.607 164.419Z" fill="white"/>
<path d="M231.552 219.853C231.552 218.078 230.359 216.885 228.584 216.885C226.808 216.885 225.615 218.078 225.615 219.853C225.615 221.629 226.808 222.822 228.584 222.822C230.359 222.822 231.552 221.629 231.552 219.853Z" fill="white"/>
<path d="M94.6358 434.56C96.4115 434.56 97.6045 433.367 97.6045 431.592C97.6045 429.816 96.4115 428.623 94.6358 428.623C92.8602 428.623 91.6672 429.816 91.6672 431.592C91.6672 433.367 92.8602 434.56 94.6358 434.56Z" fill="white"/>
<path d="M76.4911 380.627C78.2667 380.627 79.4597 379.434 79.4597 377.658C79.4597 375.882 78.2667 374.689 76.4911 374.689C74.7155 374.689 73.5225 375.882 73.5225 377.658C73.5225 379.434 74.7155 380.627 76.4911 380.627Z" fill="white"/>
<path d="M76.4911 320.754C74.7155 320.754 73.5225 321.947 73.5225 323.723C73.5225 325.498 74.7155 326.691 76.4911 326.691C78.2667 326.691 79.4597 325.498 79.4597 323.723C79.4597 321.947 78.2667 320.754 76.4911 320.754Z" fill="white"/>
<path d="M76.6576 428.623C74.882 428.623 73.689 429.816 73.689 431.592C73.689 433.367 74.882 434.56 76.6576 434.56C78.4332 434.56 79.6262 433.367 79.6262 431.592C79.6262 429.816 78.4332 428.623 76.6576 428.623Z" fill="white"/>
<path d="M94.4693 380.627C96.245 380.627 97.438 379.434 97.438 377.658C97.438 375.882 96.245 374.689 94.4693 374.689C92.6937 374.689 91.5007 375.882 91.5007 377.658C91.5007 379.434 92.6937 380.627 94.4693 380.627Z" fill="white"/>
<path d="M58.6794 320.754C56.9038 320.754 55.7108 321.947 55.7108 323.723C55.7108 325.498 56.9038 326.691 58.6794 326.691C60.455 326.691 61.648 325.498 61.648 323.723C61.648 321.947 60.455 320.754 58.6794 320.754Z" fill="white"/>
<path d="M127.568 323.723C127.568 325.498 128.761 326.691 130.537 326.691C132.312 326.691 133.505 325.498 133.505 323.723C133.505 321.947 132.312 320.754 130.537 320.754C128.761 320.754 127.568 321.947 127.568 323.723Z" fill="white"/>
<path d="M130.648 434.56C132.423 434.56 133.616 433.367 133.616 431.592C133.616 429.816 132.423 428.623 130.648 428.623C128.872 428.623 127.679 429.816 127.679 431.592C127.679 433.367 128.872 434.56 130.648 434.56Z" fill="white"/>
<path d="M115.472 323.723C115.472 321.947 114.279 320.754 112.503 320.754C110.727 320.754 109.534 321.947 109.534 323.723C109.534 325.498 110.727 326.691 112.503 326.691C114.279 326.691 115.472 325.498 115.472 323.723Z" fill="white"/>
<path d="M58.6794 392.667C56.9038 392.667 55.7108 393.86 55.7108 395.636C55.7108 397.411 56.9038 398.604 58.6794 398.604C60.455 398.604 61.648 397.411 61.648 395.636C61.648 393.86 60.455 392.667 58.6794 392.667Z" fill="white"/>
<path d="M112.503 380.627C114.279 380.627 115.472 379.434 115.472 377.658C115.472 375.882 114.279 374.689 112.503 374.689C110.727 374.689 109.534 375.882 109.534 377.658C109.534 379.434 110.727 380.627 112.503 380.627Z" fill="white"/>
<path d="M58.6794 338.733C56.9038 338.733 55.7108 339.926 55.7108 341.702C55.7108 343.478 56.9038 344.671 58.6794 344.671C60.455 344.671 61.648 343.478 61.648 341.702C61.648 339.926 60.455 338.733 58.6794 338.733Z" fill="white"/>
<path d="M112.614 434.56C114.389 434.56 115.582 433.367 115.582 431.592C115.582 429.816 114.389 428.623 112.614 428.623C110.838 428.623 109.645 429.816 109.645 431.592C109.645 433.367 110.838 434.56 112.614 434.56Z" fill="white"/>
<path d="M58.6794 374.689C56.9038 374.689 55.7108 375.882 55.7108 377.658C55.7108 379.434 56.9038 380.627 58.6794 380.627C60.455 380.627 61.648 379.434 61.648 377.658C61.648 375.882 60.455 374.689 58.6794 374.689Z" fill="white"/>
<path d="M94.4693 320.754C92.6937 320.754 91.5007 321.947 91.5007 323.723C91.5007 325.498 92.6937 326.691 94.4693 326.691C96.245 326.691 97.438 325.498 97.438 323.723C97.438 321.947 96.245 320.754 94.4693 320.754Z" fill="white"/>
<path d="M58.6794 428.623C56.9038 428.623 55.7108 429.816 55.7108 431.592C55.7108 433.367 56.9038 434.56 58.6794 434.56C60.455 434.56 61.648 433.367 61.648 431.592C61.648 429.816 60.455 428.623 58.6794 428.623Z" fill="white"/>
<path d="M58.6794 356.711C56.9038 356.711 55.7108 357.904 55.7108 359.68C55.7108 361.455 56.9038 362.648 58.6794 362.648C60.455 362.648 61.648 361.455 61.648 359.68C61.648 357.904 60.455 356.711 58.6794 356.711Z" fill="white"/>
<path d="M58.6794 410.646C56.9038 410.646 55.7108 411.838 55.7108 413.614C55.7108 415.39 56.9038 416.583 58.6794 416.583C60.455 416.583 61.648 415.39 61.648 413.614C61.648 411.838 60.455 410.646 58.6794 410.646Z" fill="white"/>
<path d="M211.091 395.636C211.091 393.86 209.898 392.667 208.123 392.667C206.347 392.667 205.154 393.86 205.154 395.636C205.154 397.411 206.347 398.604 208.123 398.604C209.898 398.604 211.091 397.411 211.091 395.636Z" fill="white"/>
<path d="M199.772 359.68C199.772 357.904 198.579 356.711 196.803 356.711C195.027 356.711 193.834 357.904 193.834 359.68C193.834 361.455 195.027 362.648 196.803 362.648C198.579 362.648 199.772 361.455 199.772 359.68Z" fill="white"/>
<path d="M216.585 413.614C216.585 411.838 215.392 410.646 213.616 410.646C211.84 410.646 210.647 411.838 210.647 413.614C210.647 415.39 211.84 416.583 213.616 416.583C215.392 416.583 216.585 415.39 216.585 413.614Z" fill="white"/>
<path d="M150.998 431.592C150.998 429.816 149.805 428.623 148.029 428.623C146.254 428.623 145.061 429.816 145.061 431.592C145.061 433.367 146.254 434.56 148.029 434.56C149.805 434.56 150.998 433.367 150.998 431.592Z" fill="white"/>
<path d="M205.432 377.658C205.432 375.882 204.239 374.689 202.463 374.689C200.687 374.689 199.494 375.882 199.494 377.658C199.494 379.434 200.687 380.627 202.463 380.627C204.239 380.627 205.432 379.434 205.432 377.658Z" fill="white"/>
<path d="M183.819 326.691C185.595 326.691 186.788 325.498 186.788 323.723C186.788 321.947 185.595 320.754 183.819 320.754C182.043 320.754 180.85 321.947 180.85 323.723C180.85 325.498 182.043 326.691 183.819 326.691Z" fill="white"/>
<path d="M159.515 398.604C161.291 398.604 162.484 397.411 162.484 395.636C162.484 393.86 161.291 392.667 159.515 392.667C157.74 392.667 156.547 393.86 156.547 395.636C156.547 397.411 157.74 398.604 159.515 398.604Z" fill="white"/>
<path d="M168.144 377.658C168.144 375.882 166.951 374.689 165.175 374.689C163.399 374.689 162.206 375.882 162.206 377.658C162.206 379.434 163.399 380.627 165.175 380.627C166.951 380.627 168.144 379.434 168.144 377.658Z" fill="white"/>
<path d="M176.495 344.671C178.27 344.671 179.463 343.478 179.463 341.702C179.463 339.926 178.27 338.733 176.495 338.733C174.719 338.733 173.526 339.926 173.526 341.702C173.526 343.478 174.719 344.671 176.495 344.671Z" fill="white"/>
<path d="M186.788 379.487C186.788 377.712 185.595 376.519 183.819 376.519C182.043 376.519 180.85 377.712 180.85 379.487C180.85 381.263 182.043 382.456 183.819 382.456C185.595 382.456 186.788 381.263 186.788 379.487Z" fill="white"/>
<path d="M170.835 362.648C172.61 362.648 173.803 361.455 173.803 359.68C173.803 357.904 172.61 356.711 170.835 356.711C169.059 356.711 167.866 357.904 167.866 359.68C167.866 361.455 169.059 362.648 170.835 362.648Z" fill="white"/>
<path d="M222.563 431.592C222.563 429.816 221.37 428.623 219.595 428.623C217.819 428.623 216.626 429.816 216.626 431.592C216.626 433.367 217.819 434.56 219.595 434.56C221.37 434.56 222.563 433.367 222.563 431.592Z" fill="white"/>
<path d="M154.022 416.583C155.797 416.583 156.99 415.39 156.99 413.614C156.99 411.838 155.797 410.646 154.022 410.646C152.246 410.646 151.053 411.838 151.053 413.614C151.053 415.39 152.246 416.583 154.022 416.583Z" fill="white"/>
<path d="M194.112 341.702C194.112 339.926 192.919 338.733 191.143 338.733C189.368 338.733 188.175 339.926 188.175 341.702C188.175 343.478 189.368 344.671 191.143 344.671C192.919 344.671 194.112 343.478 194.112 341.702Z" fill="white"/>
<path d="M98.2425 493.486C96.4669 493.486 95.2739 494.679 95.2739 496.455C95.2739 498.231 96.4669 499.424 98.2425 499.424C100.018 499.424 101.211 498.231 101.211 496.455C101.211 494.679 100.018 493.486 98.2425 493.486Z" fill="white"/>
<path d="M174.483 529.428C172.707 529.428 171.514 530.621 171.514 532.396C171.514 534.172 172.707 535.365 174.483 535.365C176.259 535.365 177.452 534.172 177.452 532.396C177.452 530.621 176.259 529.428 174.483 529.428Z" fill="white"/>
<path d="M174.483 475.507C172.707 475.507 171.514 476.7 171.514 478.475C171.514 480.251 172.707 481.444 174.483 481.444C176.259 481.444 177.452 480.251 177.452 478.475C177.452 476.7 176.259 475.507 174.483 475.507Z" fill="white"/>
<path d="M118.329 512.505C119.969 512.505 121.298 511.175 121.298 509.536C121.298 507.896 119.969 506.567 118.329 506.567C116.69 506.567 115.361 507.896 115.361 509.536C115.361 511.175 116.69 512.505 118.329 512.505Z" fill="white"/>
<path d="M111.393 493.819C113.033 493.819 114.362 492.49 114.362 490.85C114.362 489.211 113.033 487.882 111.393 487.882C109.754 487.882 108.425 489.211 108.425 490.85C108.425 492.49 109.754 493.819 111.393 493.819Z" fill="white"/>
<path d="M174.483 511.45C172.707 511.45 171.514 512.643 171.514 514.419C171.514 516.194 172.707 517.387 174.483 517.387C176.259 517.387 177.452 516.194 177.452 514.419C177.452 512.643 176.259 511.45 174.483 511.45Z" fill="white"/>
<path d="M98.2425 475.507C96.4669 475.507 95.2739 476.7 95.2739 478.475C95.2739 480.251 96.4669 481.444 98.2425 481.444C100.018 481.444 101.211 480.251 101.211 478.475C101.211 476.7 100.018 475.507 98.2425 475.507Z" fill="white"/>
<path d="M174.483 493.486C172.707 493.486 171.514 494.679 171.514 496.455C171.514 498.231 172.707 499.424 174.483 499.424C176.259 499.424 177.452 498.231 177.452 496.455C177.452 494.679 176.259 493.486 174.483 493.486Z" fill="white"/>
<path d="M174.483 547.406C172.707 547.406 171.514 548.599 171.514 550.375C171.514 552.15 172.707 553.343 174.483 553.343C176.259 553.343 177.452 552.15 177.452 550.375C177.452 548.599 176.259 547.406 174.483 547.406Z" fill="white"/>
<path d="M161.332 489.27C159.557 489.27 158.364 490.463 158.364 492.238C158.364 494.014 159.557 495.207 161.332 495.207C163.108 495.207 164.301 494.014 164.301 492.238C164.301 490.463 163.108 489.27 161.332 489.27Z" fill="white"/>
<path d="M136.363 544.049C134.587 544.049 133.394 545.242 133.394 547.017C133.394 548.793 134.587 549.986 136.363 549.986C138.138 549.986 139.331 548.793 139.331 547.017C139.331 545.242 138.138 544.049 136.363 544.049Z" fill="white"/>
<path d="M98.2425 565.385C96.4669 565.385 95.2739 566.578 95.2739 568.353C95.2739 570.129 96.4669 571.322 98.2425 571.322C100.018 571.322 101.211 570.129 101.211 568.353C101.211 566.578 100.018 565.385 98.2425 565.385Z" fill="white"/>
<path d="M145.907 525.239C144.131 525.239 142.938 526.432 142.938 528.208C142.938 529.984 144.131 531.176 145.907 531.176C147.682 531.176 148.875 529.984 148.875 528.208C148.875 526.432 147.682 525.239 145.907 525.239Z" fill="white"/>
<path d="M98.2425 583.362C96.4669 583.362 95.2739 584.555 95.2739 586.331C95.2739 588.107 96.4669 589.3 98.2425 589.3C100.018 589.3 101.211 588.107 101.211 586.331C101.211 584.555 100.018 583.362 98.2425 583.362Z" fill="white"/>
<path d="M174.483 565.385C172.707 565.385 171.514 566.578 171.514 568.353C171.514 570.129 172.707 571.322 174.483 571.322C176.259 571.322 177.452 570.129 177.452 568.353C177.452 566.578 176.259 565.385 174.483 565.385Z" fill="white"/>
<path d="M98.2425 547.406C96.4669 547.406 95.2739 548.599 95.2739 550.375C95.2739 552.15 96.4669 553.343 98.2425 553.343C100.018 553.343 101.211 552.15 101.211 550.375C101.211 548.599 100.018 547.406 98.2425 547.406Z" fill="white"/>
<path d="M98.2425 511.45C96.4669 511.45 95.2739 512.643 95.2739 514.419C95.2739 516.194 96.4669 517.387 98.2425 517.387C100.018 517.387 101.211 516.194 101.211 514.419C101.211 512.643 100.018 511.45 98.2425 511.45Z" fill="white"/>
<path d="M174.483 583.362C172.707 583.362 171.514 584.555 171.514 586.331C171.514 588.107 172.707 589.3 174.483 589.3C176.259 589.3 177.452 588.107 177.452 586.331C177.452 584.555 176.259 583.362 174.483 583.362Z" fill="white"/>
<path d="M157.351 509.536C157.351 507.76 156.158 506.567 154.382 506.567C152.607 506.567 151.414 507.76 151.414 509.536C151.414 511.312 152.607 512.505 154.382 512.505C156.158 512.505 157.351 511.312 157.351 509.536Z" fill="white"/>
<path d="M98.2425 529.428C96.4669 529.428 95.2739 530.621 95.2739 532.396C95.2739 534.172 96.4669 535.365 98.2425 535.365C100.018 535.365 101.211 534.172 101.211 532.396C101.211 530.621 100.018 529.428 98.2425 529.428Z" fill="white"/>
<path d="M129.787 528.208C129.787 526.432 128.594 525.239 126.819 525.239C125.043 525.239 123.85 526.432 123.85 528.208C123.85 529.984 125.043 531.176 126.819 531.176C128.594 531.176 129.787 529.984 129.787 528.208Z" fill="white"/>
</svg>
