<svg width="275" height="599" viewBox="0 0 275 599" fill="none" xmlns="http://www.w3.org/2000/svg">
<g clip-path="url(#clip0_271_399)">
<path d="M5.91043 93.5384C5.3833 92.9974 4.63421 92.7061 3.76027 92.7061H3.71865C1.97078 92.7061 0.777787 93.8713 0.763915 95.6469C0.750043 97.4225 1.92916 98.6294 3.70478 98.6433C4.63421 98.6433 5.32781 98.3797 5.86882 97.8526C6.40983 97.3254 6.70114 96.5763 6.70114 95.7024C6.70114 94.8285 6.43757 94.0794 5.91043 93.5384Z" fill="white"/>
<path d="M15.1768 105.733C13.4428 105.719 12.1943 106.898 12.1804 108.673C12.1665 110.449 13.3457 111.656 15.1213 111.67C16.023 111.67 16.7443 111.406 17.2853 110.879C17.8263 110.352 18.1176 109.603 18.1176 108.729C18.1315 106.953 16.9524 105.746 15.1768 105.733Z" fill="white"/>
<path d="M48.5253 58.125H48.4837C47.6236 58.125 46.8884 58.4024 46.3612 58.9157C45.8202 59.4428 45.5289 60.1919 45.5289 61.0659C45.5289 61.9398 45.7925 62.6889 46.3196 63.2299C46.8468 63.7709 47.5959 64.0622 48.4698 64.0622H48.5114C50.2732 64.0622 51.4523 62.8831 51.4662 61.1214C51.48 59.3457 50.3009 58.1389 48.5253 58.125Z" fill="white"/>
<path d="M33.0717 114.902H33.1133C34.8751 114.902 36.0542 113.723 36.0681 111.961C36.0681 111.087 35.8045 110.338 35.2774 109.797C34.7502 109.256 34.0012 108.965 33.1272 108.965C31.3239 108.965 30.1447 110.13 30.1309 111.906C30.117 113.681 31.2961 114.888 33.0717 114.902Z" fill="white"/>
<path d="M61.2874 70.3867H61.2458C59.484 70.3867 58.3049 71.5658 58.291 73.3276C58.291 74.2015 58.5546 74.9506 59.0817 75.4916C59.6089 76.0326 60.3579 76.3239 61.2319 76.3239H61.2735C63.0352 76.3239 64.2144 75.1448 64.2282 73.3831C64.2421 71.6075 63.063 70.4006 61.2874 70.3867Z" fill="white"/>
<path d="M51.7156 109.741C52.5341 109.741 53.3387 109.477 53.8797 108.95C54.4207 108.423 54.712 107.674 54.712 106.8C54.7259 105.024 53.5468 103.818 51.7711 103.804H51.7295C49.9678 103.804 48.7887 104.983 48.7748 106.745C48.7609 108.52 49.94 109.727 51.7156 109.741Z" fill="white"/>
<path d="M62.8966 88.3789H62.855C61.9949 88.3789 61.2597 88.6563 60.7326 89.1696C60.1916 89.6967 59.9003 90.4458 59.9003 91.3198C59.9003 92.1937 60.1638 92.9428 60.691 93.4838C61.2181 94.0248 61.9672 94.3161 62.8411 94.3161H62.8827C64.6445 94.3161 65.8236 93.137 65.8375 91.3753C65.8514 89.5996 64.6722 88.3928 62.8966 88.3789Z" fill="white"/>
<path d="M58.6656 19.4489H58.7072C60.469 19.4489 61.6481 18.2698 61.662 16.5081C61.6758 14.7325 60.4967 13.5256 58.7211 13.5117H58.6795C56.9177 13.5117 55.7386 14.6908 55.7247 16.4526C55.7109 18.2282 56.89 19.4351 58.6656 19.4489Z" fill="white"/>
<path d="M43.6977 6.93693C44.2248 7.47794 44.9739 7.76925 45.8479 7.76925H45.8895C47.6512 7.76925 48.8303 6.59013 48.8442 4.82839C48.8581 3.05277 47.679 1.8459 45.9033 1.83203H45.8617C45.0017 1.83203 44.2664 2.10947 43.7393 2.62274C43.1983 3.14987 42.907 3.89896 42.907 4.7729C42.907 5.64684 43.1706 6.39592 43.6977 6.93693Z" fill="white"/>
<path d="M25.7472 5.1049C26.2744 5.64591 27.0235 5.93722 27.8974 5.93722H27.939C29.7008 5.93722 30.8799 4.7581 30.8938 2.99636C30.9076 1.22074 29.7285 0.013872 27.9529 0H27.9113C27.0512 0 26.316 0.27744 25.7889 0.790705C25.2479 1.31784 24.9565 2.06693 24.9565 2.94087C24.9565 3.8148 25.2201 4.56389 25.7472 5.1049Z" fill="white"/>
<path d="M13.6232 41.4785H13.5816C12.7215 41.4785 11.9863 41.756 11.4592 42.2692C10.9181 42.7964 10.6268 43.5454 10.6268 44.4194C10.6268 45.2933 10.8904 46.0424 11.4175 46.5834C11.9447 47.1244 12.6938 47.4157 13.5677 47.4157H13.6093C15.3711 47.4157 16.5502 46.2366 16.5641 44.4749C16.5779 42.6993 15.3988 41.4924 13.6232 41.4785Z" fill="white"/>
<path d="M33.7793 50.9808C33.2522 50.4397 32.5031 50.1484 31.6292 50.1484H31.5875C30.7275 50.1484 29.9923 50.4259 29.4651 50.9391C28.9241 51.4663 28.6328 52.2154 28.6328 53.0893C28.6189 54.8649 29.7981 56.0718 31.5737 56.0857C32.4476 56.1273 33.1967 55.8221 33.7377 55.295C34.2787 54.7678 34.57 54.0187 34.57 53.1448C34.57 52.2709 34.3065 51.5218 33.7793 50.9808Z" fill="white"/>
<path d="M8.46282 13.0395C8.98996 13.5805 9.73905 13.8718 10.613 13.8718H10.6546C12.4163 13.8718 13.5955 12.6927 13.6093 10.9309C13.6232 9.15531 12.4441 7.94844 10.6685 7.93457H10.6269C8.86511 7.93457 7.68599 9.11369 7.67212 10.8754C7.67212 11.7494 7.93569 12.4985 8.46282 13.0395Z" fill="white"/>
<path d="M5.0641 24.8164H5.02249C4.16242 24.8164 3.42721 25.0938 2.90007 25.6071C2.35906 26.1342 2.06775 26.8833 2.06775 27.7573C2.06775 28.6312 2.33132 29.3803 2.85845 29.9213C3.38559 30.4623 4.13468 30.7536 5.00862 30.7536H5.05023C6.81198 30.7536 7.9911 29.5745 8.00497 27.8128C8.01884 26.0371 6.83972 24.8303 5.0641 24.8164Z" fill="white"/>
<path d="M153.425 111.338H153.467C155.229 111.338 156.408 110.158 156.422 108.397C156.436 106.621 155.256 105.414 153.481 105.4H153.439C152.579 105.4 151.844 105.678 151.317 106.191C150.776 106.718 150.484 107.467 150.484 108.341C150.484 109.215 150.748 109.964 151.275 110.505C151.802 111.046 152.551 111.338 153.425 111.338Z" fill="white"/>
<path d="M165.12 23.7348C165.647 24.2758 166.396 24.5671 167.27 24.5671H167.311C169.073 24.5671 170.252 23.388 170.266 21.6262C170.28 19.8506 169.101 18.6438 167.325 18.6299H167.284C166.424 18.6299 165.688 18.9073 165.161 19.4206C164.62 19.9477 164.329 20.6968 164.329 21.5707C164.329 22.4447 164.592 23.1938 165.12 23.7348Z" fill="white"/>
<path d="M103.722 90.7786C103.195 90.2376 102.446 89.9463 101.572 89.9463H101.53C100.67 89.9463 99.9349 90.2237 99.4078 90.737C98.8667 91.2641 98.5754 92.0132 98.5754 92.8872C98.5754 93.7611 98.839 94.5102 99.3661 95.0512C99.8933 95.5922 100.642 95.8835 101.516 95.8835C102.418 95.8835 103.139 95.62 103.68 95.0928C104.221 94.5657 104.513 93.8166 104.513 92.9426C104.513 92.0687 104.249 91.3196 103.722 90.7786Z" fill="white"/>
<path d="M99.6297 77.8913H99.6713C101.433 77.8913 102.612 76.7122 102.626 74.9505C102.64 73.1748 101.461 71.968 99.6852 71.9541H99.6436C98.7835 71.9541 98.0483 72.2315 97.5212 72.7448C96.9802 73.2719 96.6888 74.021 96.6888 74.895C96.6888 75.7689 96.9524 76.518 97.4795 77.059C98.0067 77.6 98.7558 77.8913 99.6297 77.8913Z" fill="white"/>
<path d="M164.551 96.4519C165.425 96.4519 166.174 96.1883 166.715 95.6612C167.256 95.134 167.547 94.3849 167.547 93.511C167.547 92.6371 167.284 91.888 166.757 91.347C166.229 90.806 165.48 90.5146 164.606 90.5146H164.565C162.803 90.5146 161.624 91.6938 161.61 93.4555C161.596 95.2311 162.775 96.438 164.551 96.4519Z" fill="white"/>
<path d="M112.364 110.963C113.238 111.004 113.987 110.699 114.528 110.172C115.069 109.645 115.361 108.896 115.361 108.022C115.361 107.148 115.097 106.399 114.57 105.858C114.043 105.317 113.294 105.025 112.42 105.025H112.378C110.616 105.025 109.437 106.205 109.423 107.966C109.41 109.742 110.589 110.949 112.364 110.963Z" fill="white"/>
<path d="M166.77 78.5007H166.812C168.574 78.5007 169.753 77.3216 169.767 75.5598C169.78 73.7842 168.601 72.5773 166.826 72.5635H166.784C165.022 72.5635 163.843 73.7426 163.829 75.5043C163.815 77.28 164.995 78.4868 166.77 78.5007Z" fill="white"/>
<path d="M132.853 115.818C133.727 115.846 134.476 115.555 135.017 115.027C135.558 114.5 135.849 113.751 135.849 112.877C135.849 112.003 135.586 111.254 135.059 110.713C134.532 110.172 133.783 109.881 132.909 109.881H132.867C131.105 109.881 129.926 111.06 129.912 112.822C129.898 114.597 131.077 115.804 132.853 115.818Z" fill="white"/>
<path d="M165.272 5.75627C165.799 6.29728 166.548 6.58859 167.422 6.58859H167.464C169.226 6.58859 170.405 5.40947 170.419 3.64772C170.432 1.8721 169.253 0.665239 167.478 0.651367H167.436C166.576 0.651367 165.841 0.928807 165.314 1.44207C164.773 1.96921 164.481 2.7183 164.481 3.59223C164.481 4.46617 164.745 5.21526 165.272 5.75627Z" fill="white"/>
<path d="M97.9789 23.1254C98.5061 23.6664 99.2552 23.9577 100.129 23.9577H100.171C101.031 23.9577 101.766 23.6803 102.293 23.167C102.834 22.6399 103.125 21.8908 103.125 21.0169C103.125 20.1429 102.862 19.3938 102.335 18.8528C101.808 18.3118 101.059 18.0205 100.185 18.0205H100.143C99.2829 18.0205 98.5477 18.2979 98.0206 18.8112C97.4795 19.3384 97.1882 20.0874 97.1882 20.9614C97.1882 21.8353 97.4518 22.5844 97.9789 23.1254Z" fill="white"/>
<path d="M98.1315 5.14689C98.6587 5.6879 99.4077 5.97921 100.282 5.97921C101.169 6.00696 101.905 5.71565 102.446 5.18851C102.987 4.66137 103.278 3.91228 103.278 3.03835C103.278 2.16441 103.014 1.41532 102.487 0.874313C101.96 0.333305 101.211 0.0419922 100.337 0.0419922H100.296C99.4355 0.0419922 98.7003 0.319433 98.1731 0.832697C97.6321 1.35983 97.3408 2.10892 97.3408 2.98286C97.3408 3.8568 97.6044 4.60588 98.1315 5.14689Z" fill="white"/>
<path d="M99.9627 41.9353C100.892 41.963 101.586 41.6717 102.127 41.1446C102.668 40.6174 102.959 39.8683 102.959 38.9944C102.959 38.1205 102.696 37.3714 102.168 36.8304C101.641 36.2894 100.892 35.998 100.018 35.998H99.9766C99.1165 35.998 98.3813 36.2755 97.8542 36.7888C97.3132 37.3159 97.0219 38.065 97.0219 38.9389C97.0219 39.8128 97.2854 40.5619 97.8126 41.1029C98.3397 41.644 99.0888 41.9353 99.9627 41.9353Z" fill="white"/>
<path d="M167.089 42.5446H167.131C168.893 42.5446 170.072 41.3655 170.086 39.6038C170.1 37.8282 168.921 36.6213 167.145 36.6074H167.103C166.243 36.6074 165.508 36.8849 164.981 37.3981C164.44 37.9253 164.149 38.6744 164.149 39.5483C164.149 40.4222 164.412 41.1713 164.939 41.7123C165.466 42.2533 166.215 42.5446 167.089 42.5446Z" fill="white"/>
<path d="M97.6461 59.0815C98.1732 59.6225 98.9223 59.9138 99.7962 59.9138C100.684 59.9277 101.419 59.6502 101.96 59.1231C102.501 58.5959 102.793 57.8469 102.793 56.9729C102.793 56.099 102.529 55.3499 102.002 54.8089C101.475 54.2679 100.726 53.9766 99.8517 53.9766H99.8101C98.95 53.9766 98.2148 54.254 97.6877 54.7673C97.1467 55.2944 96.8553 56.0435 96.8553 56.9174C96.8553 57.7914 97.1189 58.5405 97.6461 59.0815Z" fill="white"/>
<path d="M166.937 60.5232H166.978C168.74 60.5232 169.919 59.344 169.933 57.5823C169.947 55.8067 168.768 54.5998 166.992 54.5859H166.951C166.091 54.5859 165.355 54.8634 164.828 55.3766C164.287 55.9038 163.996 56.6529 163.996 57.5268C163.996 58.4007 164.259 59.1498 164.787 59.6908C165.314 60.2318 166.063 60.5232 166.937 60.5232Z" fill="white"/>
<path d="M204.71 42.8913C205.626 42.9191 206.333 42.6278 206.874 42.1006C207.415 41.5735 207.707 40.8244 207.707 39.9505C207.721 38.1748 206.541 36.968 204.766 36.9541H204.724C203.864 36.9541 203.129 37.2315 202.602 37.7448C202.061 38.2719 201.769 39.021 201.769 39.895C201.769 40.7689 202.033 41.518 202.56 42.059C203.087 42.6 203.836 42.8913 204.71 42.8913Z" fill="white"/>
<path d="M271.143 73.5078H271.102C270.242 73.5078 269.506 73.7853 268.979 74.2985C268.438 74.8257 268.147 75.5747 268.147 76.4487C268.147 77.3226 268.411 78.0717 268.938 78.6127C269.465 79.1537 270.214 79.445 271.088 79.445H271.129C272.891 79.445 274.07 78.2659 274.084 76.5042C274.098 74.7285 272.919 73.5217 271.143 73.5078Z" fill="white"/>
<path d="M202.893 6.10295C203.42 6.64396 204.169 6.93527 205.043 6.93527C205.917 6.97688 206.666 6.6717 207.207 6.14456C207.748 5.61743 208.04 4.86834 208.04 3.9944C208.04 3.12047 207.776 2.37138 207.249 1.83037C206.722 1.28936 205.973 0.998047 205.099 0.998047H205.057C204.197 0.998047 203.462 1.27549 202.935 1.78875C202.394 2.31589 202.102 3.06498 202.102 3.93891C202.102 4.81285 202.366 5.56194 202.893 6.10295Z" fill="white"/>
<path d="M270.81 109.464H270.769C269.007 109.464 267.828 110.643 267.814 112.405C267.814 113.279 268.078 114.028 268.605 114.569C269.132 115.11 269.881 115.401 270.755 115.401H270.796C272.558 115.401 273.737 114.222 273.751 112.46C273.765 110.685 272.586 109.478 270.81 109.464Z" fill="white"/>
<path d="M226.559 39.0639C227.086 39.6049 227.835 39.8962 228.709 39.8962C229.597 39.924 230.332 39.6326 230.873 39.1055C231.414 38.5784 231.705 37.8293 231.705 36.9553C231.705 36.0814 231.441 35.3323 230.914 34.7913C230.387 34.2503 229.638 33.959 228.764 33.959H228.723C227.863 33.959 227.127 34.2364 226.6 34.7497C226.059 35.2768 225.768 36.0259 225.768 36.8999C225.768 37.7738 226.031 38.5229 226.559 39.0639Z" fill="white"/>
<path d="M269.603 6.7006C270.131 7.24161 270.88 7.53293 271.754 7.53293C272.614 7.53293 273.377 7.26936 273.918 6.74222C274.459 6.21508 274.75 5.466 274.75 4.59206C274.75 3.71812 274.486 2.96903 273.959 2.42802C273.432 1.88702 272.683 1.5957 271.809 1.5957H271.767C270.907 1.5957 270.172 1.87314 269.645 2.38641C269.104 2.91354 268.813 3.66263 268.813 4.53657C268.813 5.41051 269.076 6.1596 269.603 6.7006Z" fill="white"/>
<path d="M273.779 20.4202C273.252 19.8792 272.503 19.5879 271.629 19.5879H271.587C270.727 19.5879 269.992 19.8653 269.465 20.3786C268.924 20.9057 268.632 21.6548 268.632 22.5288C268.632 23.4027 268.896 24.1518 269.423 24.6928C269.95 25.2338 270.699 25.5251 271.573 25.5251C272.392 25.5251 273.196 25.2615 273.737 24.7344C274.278 24.2073 274.57 23.4582 274.57 22.5842C274.57 21.7103 274.306 20.9612 273.779 20.4202Z" fill="white"/>
<path d="M248.102 74.7976H248.144C249.905 74.7976 251.084 73.6185 251.098 71.8567C251.112 70.0811 249.933 68.8742 248.157 68.8604H248.116C246.354 68.8604 245.175 70.0395 245.161 71.8012C245.147 73.5768 246.326 74.7837 248.102 74.7976Z" fill="white"/>
<path d="M216.002 20.5307C216.529 21.0717 217.278 21.363 218.152 21.363H218.194C219.956 21.363 221.135 20.1839 221.149 18.4221C221.162 16.6465 219.983 15.4397 218.208 15.4258H218.166C217.306 15.4258 216.571 15.7032 216.044 16.2165C215.503 16.7436 215.211 17.4927 215.211 18.3666C215.211 19.2406 215.475 19.9897 216.002 20.5307Z" fill="white"/>
<path d="M271.462 37.5654H271.421C270.561 37.5654 269.825 37.8429 269.298 38.3561C268.757 38.8833 268.466 39.6324 268.466 40.5063C268.466 41.3802 268.73 42.1293 269.257 42.6703C269.784 43.2113 270.533 43.5027 271.407 43.5027H271.448C273.21 43.5027 274.389 42.3235 274.403 40.5618C274.417 38.7862 273.238 37.5793 271.462 37.5654Z" fill="white"/>
<path d="M204.558 60.8698H204.599C206.361 60.8698 207.54 59.6907 207.554 57.929C207.568 56.1534 206.389 54.9465 204.613 54.9326H204.572C203.712 54.9326 202.976 55.2101 202.449 55.7233C201.908 56.2505 201.617 56.9996 201.617 57.8735C201.617 58.7474 201.88 59.4965 202.408 60.0375C202.935 60.5785 203.684 60.8698 204.558 60.8698Z" fill="white"/>
<path d="M255.204 91.3608C255.732 91.9018 256.481 92.1931 257.355 92.1931H257.396C259.158 92.1931 260.337 91.014 260.351 89.2522C260.365 87.4766 259.186 86.2697 257.41 86.2559H257.368C256.508 86.2559 255.773 86.5333 255.246 87.0466C254.705 87.5737 254.414 88.3228 254.414 89.1967C254.414 90.0707 254.677 90.8198 255.204 91.3608Z" fill="white"/>
<path d="M270.977 91.4863H270.935C269.187 91.4863 267.994 92.6655 267.98 94.4272C267.98 95.3011 268.244 96.0502 268.771 96.5912C269.298 97.1322 270.047 97.4236 270.921 97.4236H270.963C272.725 97.4236 273.904 96.2444 273.918 94.4827C273.932 92.7071 272.752 91.5002 270.977 91.4863Z" fill="white"/>
<path d="M204.877 24.9128C205.723 24.9544 206.5 24.6492 207.041 24.1221C207.582 23.595 207.873 22.8459 207.873 21.9719C207.873 21.098 207.609 20.3489 207.082 19.8079C206.555 19.2669 205.806 18.9756 204.932 18.9756H204.891C204.03 18.9756 203.295 19.253 202.768 19.7663C202.227 20.2934 201.936 21.0425 201.936 21.9165C201.936 22.7904 202.199 23.5395 202.726 24.0805C203.254 24.6215 204.003 24.9128 204.877 24.9128Z" fill="white"/>
<path d="M271.296 55.5439H271.254C270.394 55.5439 269.659 55.8214 269.132 56.3346C268.591 56.8618 268.3 57.6109 268.3 58.4848C268.3 59.3587 268.563 60.1078 269.09 60.6488C269.617 61.1899 270.366 61.4812 271.24 61.4812H271.282C273.044 61.4812 274.223 60.302 274.237 58.5403C274.251 56.7647 273.072 55.5578 271.296 55.5439Z" fill="white"/>
<path d="M235.561 55.683C236.089 56.224 236.838 56.5154 237.712 56.5154C238.586 56.5431 239.335 56.2518 239.876 55.7246C240.417 55.1975 240.708 54.4484 240.708 53.5745C240.708 52.7005 240.444 51.9515 239.917 51.4104C239.39 50.8694 238.641 50.5781 237.767 50.5781H237.725C236.865 50.5781 236.13 50.8556 235.603 51.3688C235.062 51.896 234.771 52.6451 234.771 53.519C234.771 54.3929 235.034 55.142 235.561 55.683Z" fill="white"/>
<path d="M201.922 113.958C202.449 114.499 203.198 114.791 204.072 114.791H204.114C205.875 114.791 207.054 113.612 207.068 111.85C207.082 110.074 205.903 108.867 204.127 108.854H204.086C202.338 108.854 201.145 110.033 201.131 111.794C201.131 112.668 201.395 113.417 201.922 113.958Z" fill="white"/>
<path d="M204.391 78.8474H204.433C206.195 78.8474 207.374 77.6683 207.388 75.9065C207.401 74.1309 206.222 72.924 204.447 72.9102H204.405C203.545 72.9102 202.81 73.1876 202.283 73.7009C201.742 74.228 201.45 74.9771 201.45 75.851C201.45 76.725 201.714 77.474 202.241 78.0151C202.768 78.5561 203.517 78.8474 204.391 78.8474Z" fill="white"/>
<path d="M204.225 96.8122H204.266C206.028 96.8122 207.207 95.6331 207.221 93.8713C207.235 92.0957 206.056 90.8889 204.28 90.875H204.239C203.379 90.875 202.643 91.1524 202.116 91.6657C201.575 92.1928 201.284 92.9419 201.284 93.8159C201.284 94.6898 201.547 95.4389 202.075 95.9799C202.602 96.5209 203.351 96.8122 204.225 96.8122Z" fill="white"/>
<path d="M13.1378 257.396C11.3622 257.396 10.1692 258.589 10.1692 260.364C10.1692 262.14 11.3622 263.333 13.1378 263.333C14.9134 263.333 16.1064 262.14 16.1064 260.364C16.1064 258.589 14.9134 257.396 13.1378 257.396Z" fill="white"/>
<path d="M27.6477 273.293C27.6477 271.517 26.4547 270.324 24.6791 270.324C22.9034 270.324 21.7104 271.517 21.7104 273.293C21.7104 275.068 22.9034 276.261 24.6791 276.261C26.4547 276.261 27.6477 275.068 27.6477 273.293Z" fill="white"/>
<path d="M57.5835 228.319C59.3591 228.319 60.5521 227.126 60.5521 225.35C60.5521 223.575 59.3591 222.382 57.5835 222.382C55.8079 222.382 54.6149 223.575 54.6149 225.35C54.6149 227.126 55.8079 228.319 57.5835 228.319Z" fill="white"/>
<path d="M45.6261 276.345C45.6261 274.569 44.4331 273.376 42.6575 273.376C40.8818 273.376 39.6888 274.569 39.6888 276.345C39.6888 278.12 40.8818 279.313 42.6575 279.313C44.4331 279.313 45.6261 278.12 45.6261 276.345Z" fill="white"/>
<path d="M67.4882 237.504C67.4882 239.279 68.6812 240.472 70.4568 240.472C72.2324 240.472 73.4254 239.279 73.4254 237.504C73.4254 235.728 72.2324 234.535 70.4568 234.535C68.6812 234.535 67.4882 235.728 67.4882 237.504Z" fill="white"/>
<path d="M61.2458 268.05C59.4702 268.05 58.2772 269.243 58.2772 271.018C58.2772 272.794 59.4702 273.987 61.2458 273.987C63.0214 273.987 64.2144 272.794 64.2144 271.018C64.2144 269.243 63.0214 268.05 61.2458 268.05Z" fill="white"/>
<path d="M72.2324 258.45C74.008 258.45 75.201 257.257 75.201 255.481C75.201 253.706 74.008 252.513 72.2324 252.513C70.4568 252.513 69.2638 253.706 69.2638 255.481C69.2638 257.257 70.4568 258.45 72.2324 258.45Z" fill="white"/>
<path d="M64.3948 180.641C64.3948 182.417 65.5878 183.61 67.3634 183.61C69.139 183.61 70.332 182.417 70.332 180.641C70.332 178.866 69.139 177.673 67.3634 177.673C65.5878 177.673 64.3948 178.866 64.3948 180.641Z" fill="white"/>
<path d="M51.4661 169.099C51.4661 170.875 52.6591 172.068 54.4347 172.068C56.2103 172.068 57.4033 170.875 57.4033 169.099C57.4033 167.324 56.2103 166.131 54.4347 166.131C52.6591 166.131 51.4661 167.324 51.4661 169.099Z" fill="white"/>
<path d="M33.4879 167.435C33.4879 169.211 34.6809 170.404 36.4565 170.404C38.2321 170.404 39.4251 169.211 39.4251 167.435C39.4251 165.66 38.2321 164.467 36.4565 164.467C34.6809 164.467 33.4879 165.66 33.4879 167.435Z" fill="white"/>
<path d="M22.5292 212.006C24.3048 212.006 25.4978 210.813 25.4978 209.037C25.4978 207.261 24.3048 206.068 22.5292 206.068C20.7535 206.068 19.5605 207.261 19.5605 209.037C19.5605 210.813 20.7535 212.006 22.5292 212.006Z" fill="white"/>
<path d="M37.6495 217.527C37.6495 218.401 37.927 219.15 38.468 219.677C38.9951 220.205 39.7442 220.496 40.6181 220.496C42.3938 220.496 43.5868 219.303 43.5868 217.527C43.5868 215.752 42.3938 214.559 40.6181 214.559C38.8425 214.559 37.6495 215.752 37.6495 217.527Z" fill="white"/>
<path d="M19.2552 172.554C17.4796 172.554 16.2866 173.747 16.2866 175.522C16.2866 177.298 17.4796 178.491 19.2552 178.491C21.0309 178.491 22.2238 177.298 22.2238 175.522C22.2238 173.747 21.0309 172.554 19.2552 172.554Z" fill="white"/>
<path d="M13.8175 189.478C12.0419 189.478 10.8489 190.671 10.8489 192.446C10.8489 194.222 12.0419 195.415 13.8175 195.415C15.5931 195.415 16.7861 194.222 16.7861 192.446C16.7861 190.671 15.5931 189.478 13.8175 189.478Z" fill="white"/>
<path d="M107.967 168.419C107.967 170.194 109.16 171.387 110.935 171.387C112.711 171.387 113.904 170.194 113.904 168.419C113.904 166.643 112.711 165.45 110.935 165.45C109.16 165.45 107.967 166.643 107.967 168.419Z" fill="white"/>
<path d="M125.945 240.334C125.945 242.109 127.138 243.302 128.913 243.302C130.689 243.302 131.882 242.109 131.882 240.334C131.882 238.558 130.689 237.365 128.913 237.365C127.138 237.365 125.945 238.558 125.945 240.334Z" fill="white"/>
<path d="M125.945 168.419C125.945 170.194 127.138 171.387 128.913 171.387C130.689 171.387 131.882 170.194 131.882 168.419C131.882 166.643 130.689 165.45 128.913 165.45C127.138 165.45 125.945 166.643 125.945 168.419Z" fill="white"/>
<path d="M125.945 186.399C125.945 188.175 127.138 189.368 128.913 189.368C130.689 189.368 131.882 188.175 131.882 186.399C131.882 184.624 130.689 183.431 128.913 183.431C127.138 183.431 125.945 184.624 125.945 186.399Z" fill="white"/>
<path d="M125.945 222.355C125.945 224.131 127.138 225.324 128.913 225.324C130.689 225.324 131.882 224.131 131.882 222.355C131.882 220.58 130.689 219.387 128.913 219.387C127.138 219.387 125.945 220.58 125.945 222.355Z" fill="white"/>
<path d="M125.945 204.378C125.945 206.153 127.138 207.346 128.913 207.346C130.689 207.346 131.882 206.153 131.882 204.378C131.882 202.602 130.689 201.409 128.913 201.409C127.138 201.409 125.945 202.602 125.945 204.378Z" fill="white"/>
<path d="M125.945 276.29C125.945 278.066 127.138 279.259 128.913 279.259C130.689 279.259 131.882 278.066 131.882 276.29C131.882 274.514 130.689 273.321 128.913 273.321C127.138 273.321 125.945 274.514 125.945 276.29Z" fill="white"/>
<path d="M125.945 258.311C125.945 260.087 127.138 261.28 128.913 261.28C130.689 261.28 131.882 260.087 131.882 258.311C131.882 256.536 130.689 255.343 128.913 255.343C127.138 255.343 125.945 256.536 125.945 258.311Z" fill="white"/>
<path d="M89.9885 168.419C89.9885 170.194 91.1815 171.387 92.9571 171.387C94.7328 171.387 95.9257 170.194 95.9257 168.419C95.9257 166.643 94.7328 165.45 92.9571 165.45C91.1815 165.45 89.9885 166.643 89.9885 168.419Z" fill="white"/>
<path d="M164.87 165.45C163.094 165.45 161.901 166.643 161.901 168.419C161.901 170.194 163.094 171.387 164.87 171.387C166.645 171.387 167.838 170.194 167.838 168.419C167.838 166.643 166.645 165.45 164.87 165.45Z" fill="white"/>
<path d="M143.923 168.419C143.923 170.194 145.116 171.387 146.892 171.387C148.667 171.387 149.86 170.194 149.86 168.419C149.86 166.643 148.667 165.45 146.892 165.45C145.116 165.45 143.923 166.643 143.923 168.419Z" fill="white"/>
<path d="M193.613 207.346C195.388 207.346 196.581 206.153 196.581 204.378C196.581 202.602 195.388 201.409 193.613 201.409C191.837 201.409 190.644 202.602 190.644 204.378C190.644 206.153 191.837 207.346 193.613 207.346Z" fill="white"/>
<path d="M266.843 195.388C266.843 193.612 265.65 192.419 263.874 192.419C262.099 192.419 260.906 193.612 260.906 195.388C260.906 197.163 262.099 198.356 263.874 198.356C265.65 198.356 266.843 197.163 266.843 195.388Z" fill="white"/>
<path d="M210.536 220.885C208.761 220.885 207.568 222.078 207.568 223.853C207.568 225.629 208.761 226.822 210.536 226.822C212.312 226.822 213.505 225.629 213.505 223.853C213.505 222.078 212.312 220.885 210.536 220.885Z" fill="white"/>
<path d="M211.591 171.387C213.366 171.387 214.559 170.194 214.559 168.419C214.559 166.643 213.366 165.45 211.591 165.45C209.815 165.45 208.622 166.643 208.622 168.419C208.622 170.194 209.815 171.387 211.591 171.387Z" fill="white"/>
<path d="M262.681 178.907C262.681 177.131 261.488 175.938 259.713 175.938C257.937 175.938 256.744 177.131 256.744 178.907C256.744 180.683 257.937 181.876 259.713 181.876C261.488 181.876 262.681 180.683 262.681 178.907Z" fill="white"/>
<path d="M259.907 262.306C259.907 260.53 258.714 259.337 256.938 259.337C255.163 259.337 253.97 260.53 253.97 262.306C253.97 264.081 255.163 265.274 256.938 265.274C258.714 265.274 259.907 264.081 259.907 262.306Z" fill="white"/>
<path d="M265.137 273.321C263.361 273.321 262.168 274.514 262.168 276.29C262.168 278.066 263.361 279.259 265.137 279.259C266.912 279.259 268.105 278.066 268.105 276.29C268.105 274.514 266.912 273.321 265.137 273.321Z" fill="white"/>
<path d="M193.613 189.368C195.388 189.368 196.581 188.175 196.581 186.399C196.581 184.624 195.388 183.431 193.613 183.431C191.837 183.431 190.644 184.624 190.644 186.399C190.644 188.175 191.837 189.368 193.613 189.368Z" fill="white"/>
<path d="M193.613 171.387C195.388 171.387 196.581 170.194 196.581 168.419C196.581 166.643 195.388 165.45 193.613 165.45C191.837 165.45 190.644 166.643 190.644 168.419C190.644 170.194 191.837 171.387 193.613 171.387Z" fill="white"/>
<path d="M242.525 235.06C242.525 233.285 241.332 232.092 239.557 232.092C237.781 232.092 236.588 233.285 236.588 235.06C236.588 236.836 237.781 238.029 239.557 238.029C241.332 238.029 242.525 236.836 242.525 235.06Z" fill="white"/>
<path d="M251.847 249.433C251.847 247.658 250.654 246.465 248.879 246.465C247.103 246.465 245.91 247.658 245.91 249.433C245.91 251.209 247.103 252.402 248.879 252.402C250.654 252.402 251.847 251.209 251.847 249.433Z" fill="white"/>
<path d="M193.613 261.28C195.388 261.28 196.581 260.087 196.581 258.311C196.581 256.536 195.388 255.343 193.613 255.343C191.837 255.343 190.644 256.536 190.644 258.311C190.644 260.087 191.837 261.28 193.613 261.28Z" fill="white"/>
<path d="M246.95 173.053C248.726 173.053 249.919 171.86 249.919 170.085C249.919 168.309 248.726 167.116 246.95 167.116C245.175 167.116 243.982 168.309 243.982 170.085C243.982 171.86 245.175 173.053 246.95 173.053Z" fill="white"/>
<path d="M193.613 243.302C195.388 243.302 196.581 242.109 196.581 240.334C196.581 238.558 195.388 237.365 193.613 237.365C191.837 237.365 190.644 238.558 190.644 240.334C190.644 242.109 191.837 243.302 193.613 243.302Z" fill="white"/>
<path d="M259.713 215.002C261.352 215.002 262.681 213.673 262.681 212.033C262.681 210.394 261.352 209.064 259.713 209.064C258.073 209.064 256.744 210.394 256.744 212.033C256.744 213.673 258.073 215.002 259.713 215.002Z" fill="white"/>
<path d="M246.895 225.046C248.671 225.046 249.864 223.853 249.864 222.077C249.864 220.301 248.671 219.108 246.895 219.108C245.119 219.108 243.926 220.301 243.926 222.077C243.926 223.853 245.119 225.046 246.895 225.046Z" fill="white"/>
<path d="M193.613 225.324C195.388 225.324 196.581 224.131 196.581 222.355C196.581 220.58 195.388 219.387 193.613 219.387C191.837 219.387 190.644 220.58 190.644 222.355C190.644 224.131 191.837 225.324 193.613 225.324Z" fill="white"/>
<path d="M193.613 279.259C195.388 279.259 196.581 278.066 196.581 276.29C196.581 274.514 195.388 273.321 193.613 273.321C191.837 273.321 190.644 274.514 190.644 276.29C190.644 278.066 191.837 279.259 193.613 279.259Z" fill="white"/>
<path d="M232.607 168.419C232.607 166.643 231.414 165.45 229.638 165.45C227.863 165.45 226.67 166.643 226.67 168.419C226.67 170.194 227.863 171.387 229.638 171.387C231.414 171.387 232.607 170.194 232.607 168.419Z" fill="white"/>
<path d="M231.553 223.853C231.553 222.078 230.36 220.885 228.584 220.885C226.808 220.885 225.615 222.078 225.615 223.853C225.615 225.629 226.808 226.822 228.584 226.822C230.36 226.822 231.553 225.629 231.553 223.853Z" fill="white"/>
<path d="M94.6358 441.56C96.4115 441.56 97.6045 440.367 97.6045 438.592C97.6045 436.816 96.4115 435.623 94.6358 435.623C92.8602 435.623 91.6672 436.816 91.6672 438.592C91.6672 440.367 92.8602 441.56 94.6358 441.56Z" fill="white"/>
<path d="M76.4911 387.627C78.2667 387.627 79.4597 386.434 79.4597 384.658C79.4597 382.882 78.2667 381.689 76.4911 381.689C74.7155 381.689 73.5225 382.882 73.5225 384.658C73.5225 386.434 74.7155 387.627 76.4911 387.627Z" fill="white"/>
<path d="M76.4911 327.754C74.7155 327.754 73.5225 328.947 73.5225 330.723C73.5225 332.498 74.7155 333.691 76.4911 333.691C78.2667 333.691 79.4597 332.498 79.4597 330.723C79.4597 328.947 78.2667 327.754 76.4911 327.754Z" fill="white"/>
<path d="M76.6576 435.623C74.882 435.623 73.689 436.816 73.689 438.592C73.689 440.367 74.882 441.56 76.6576 441.56C78.4332 441.56 79.6262 440.367 79.6262 438.592C79.6262 436.816 78.4332 435.623 76.6576 435.623Z" fill="white"/>
<path d="M94.4693 387.627C96.245 387.627 97.438 386.434 97.438 384.658C97.438 382.882 96.245 381.689 94.4693 381.689C92.6937 381.689 91.5007 382.882 91.5007 384.658C91.5007 386.434 92.6937 387.627 94.4693 387.627Z" fill="white"/>
<path d="M58.6794 327.754C56.9038 327.754 55.7108 328.947 55.7108 330.723C55.7108 332.498 56.9038 333.691 58.6794 333.691C60.455 333.691 61.648 332.498 61.648 330.723C61.648 328.947 60.455 327.754 58.6794 327.754Z" fill="white"/>
<path d="M127.568 330.723C127.568 332.498 128.761 333.691 130.537 333.691C132.312 333.691 133.505 332.498 133.505 330.723C133.505 328.947 132.312 327.754 130.537 327.754C128.761 327.754 127.568 328.947 127.568 330.723Z" fill="white"/>
<path d="M130.648 441.56C132.423 441.56 133.616 440.367 133.616 438.592C133.616 436.816 132.423 435.623 130.648 435.623C128.872 435.623 127.679 436.816 127.679 438.592C127.679 440.367 128.872 441.56 130.648 441.56Z" fill="white"/>
<path d="M115.472 330.723C115.472 328.947 114.279 327.754 112.503 327.754C110.727 327.754 109.534 328.947 109.534 330.723C109.534 332.498 110.727 333.691 112.503 333.691C114.279 333.691 115.472 332.498 115.472 330.723Z" fill="white"/>
<path d="M58.6794 399.667C56.9038 399.667 55.7108 400.86 55.7108 402.636C55.7108 404.411 56.9038 405.604 58.6794 405.604C60.455 405.604 61.648 404.411 61.648 402.636C61.648 400.86 60.455 399.667 58.6794 399.667Z" fill="white"/>
<path d="M112.503 387.627C114.279 387.627 115.472 386.434 115.472 384.658C115.472 382.882 114.279 381.689 112.503 381.689C110.727 381.689 109.534 382.882 109.534 384.658C109.534 386.434 110.727 387.627 112.503 387.627Z" fill="white"/>
<path d="M58.6794 345.733C56.9038 345.733 55.7108 346.926 55.7108 348.702C55.7108 350.478 56.9038 351.671 58.6794 351.671C60.455 351.671 61.648 350.478 61.648 348.702C61.648 346.926 60.455 345.733 58.6794 345.733Z" fill="white"/>
<path d="M112.614 441.56C114.389 441.56 115.582 440.367 115.582 438.592C115.582 436.816 114.389 435.623 112.614 435.623C110.838 435.623 109.645 436.816 109.645 438.592C109.645 440.367 110.838 441.56 112.614 441.56Z" fill="white"/>
<path d="M58.6794 381.689C56.9038 381.689 55.7108 382.882 55.7108 384.658C55.7108 386.434 56.9038 387.627 58.6794 387.627C60.455 387.627 61.648 386.434 61.648 384.658C61.648 382.882 60.455 381.689 58.6794 381.689Z" fill="white"/>
<path d="M94.4693 327.754C92.6937 327.754 91.5007 328.947 91.5007 330.723C91.5007 332.498 92.6937 333.691 94.4693 333.691C96.245 333.691 97.438 332.498 97.438 330.723C97.438 328.947 96.245 327.754 94.4693 327.754Z" fill="white"/>
<path d="M58.6794 435.623C56.9038 435.623 55.7108 436.816 55.7108 438.592C55.7108 440.367 56.9038 441.56 58.6794 441.56C60.455 441.56 61.648 440.367 61.648 438.592C61.648 436.816 60.455 435.623 58.6794 435.623Z" fill="white"/>
<path d="M58.6794 363.711C56.9038 363.711 55.7108 364.904 55.7108 366.68C55.7108 368.455 56.9038 369.648 58.6794 369.648C60.455 369.648 61.648 368.455 61.648 366.68C61.648 364.904 60.455 363.711 58.6794 363.711Z" fill="white"/>
<path d="M58.6794 417.646C56.9038 417.646 55.7108 418.838 55.7108 420.614C55.7108 422.39 56.9038 423.583 58.6794 423.583C60.455 423.583 61.648 422.39 61.648 420.614C61.648 418.838 60.455 417.646 58.6794 417.646Z" fill="white"/>
<path d="M211.091 402.636C211.091 400.86 209.898 399.667 208.123 399.667C206.347 399.667 205.154 400.86 205.154 402.636C205.154 404.411 206.347 405.604 208.123 405.604C209.898 405.604 211.091 404.411 211.091 402.636Z" fill="white"/>
<path d="M199.772 366.68C199.772 364.904 198.579 363.711 196.803 363.711C195.027 363.711 193.834 364.904 193.834 366.68C193.834 368.455 195.027 369.648 196.803 369.648C198.579 369.648 199.772 368.455 199.772 366.68Z" fill="white"/>
<path d="M216.585 420.614C216.585 418.838 215.392 417.646 213.616 417.646C211.84 417.646 210.647 418.838 210.647 420.614C210.647 422.39 211.84 423.583 213.616 423.583C215.392 423.583 216.585 422.39 216.585 420.614Z" fill="white"/>
<path d="M150.998 438.592C150.998 436.816 149.805 435.623 148.029 435.623C146.254 435.623 145.061 436.816 145.061 438.592C145.061 440.367 146.254 441.56 148.029 441.56C149.805 441.56 150.998 440.367 150.998 438.592Z" fill="white"/>
<path d="M205.432 384.658C205.432 382.882 204.239 381.689 202.463 381.689C200.687 381.689 199.494 382.882 199.494 384.658C199.494 386.434 200.687 387.627 202.463 387.627C204.239 387.627 205.432 386.434 205.432 384.658Z" fill="white"/>
<path d="M183.819 333.691C185.595 333.691 186.788 332.498 186.788 330.723C186.788 328.947 185.595 327.754 183.819 327.754C182.043 327.754 180.85 328.947 180.85 330.723C180.85 332.498 182.043 333.691 183.819 333.691Z" fill="white"/>
<path d="M159.515 405.604C161.291 405.604 162.484 404.411 162.484 402.636C162.484 400.86 161.291 399.667 159.515 399.667C157.74 399.667 156.547 400.86 156.547 402.636C156.547 404.411 157.74 405.604 159.515 405.604Z" fill="white"/>
<path d="M168.144 384.658C168.144 382.882 166.951 381.689 165.175 381.689C163.399 381.689 162.206 382.882 162.206 384.658C162.206 386.434 163.399 387.627 165.175 387.627C166.951 387.627 168.144 386.434 168.144 384.658Z" fill="white"/>
<path d="M176.495 351.671C178.27 351.671 179.463 350.478 179.463 348.702C179.463 346.926 178.27 345.733 176.495 345.733C174.719 345.733 173.526 346.926 173.526 348.702C173.526 350.478 174.719 351.671 176.495 351.671Z" fill="white"/>
<path d="M186.788 386.487C186.788 384.712 185.595 383.519 183.819 383.519C182.043 383.519 180.85 384.712 180.85 386.487C180.85 388.263 182.043 389.456 183.819 389.456C185.595 389.456 186.788 388.263 186.788 386.487Z" fill="white"/>
<path d="M170.835 369.648C172.61 369.648 173.803 368.455 173.803 366.68C173.803 364.904 172.61 363.711 170.835 363.711C169.059 363.711 167.866 364.904 167.866 366.68C167.866 368.455 169.059 369.648 170.835 369.648Z" fill="white"/>
<path d="M222.564 438.592C222.564 436.816 221.371 435.623 219.595 435.623C217.819 435.623 216.626 436.816 216.626 438.592C216.626 440.367 217.819 441.56 219.595 441.56C221.371 441.56 222.564 440.367 222.564 438.592Z" fill="white"/>
<path d="M154.022 423.583C155.797 423.583 156.99 422.39 156.99 420.614C156.99 418.838 155.797 417.646 154.022 417.646C152.246 417.646 151.053 418.838 151.053 420.614C151.053 422.39 152.246 423.583 154.022 423.583Z" fill="white"/>
<path d="M194.112 348.702C194.112 346.926 192.919 345.733 191.143 345.733C189.368 345.733 188.175 346.926 188.175 348.702C188.175 350.478 189.368 351.671 191.143 351.671C192.919 351.671 194.112 350.478 194.112 348.702Z" fill="white"/>
<path d="M98.2425 502.486C96.4669 502.486 95.2739 503.679 95.2739 505.455C95.2739 507.231 96.4669 508.424 98.2425 508.424C100.018 508.424 101.211 507.231 101.211 505.455C101.211 503.679 100.018 502.486 98.2425 502.486Z" fill="white"/>
<path d="M174.483 538.428C172.707 538.428 171.514 539.621 171.514 541.396C171.514 543.172 172.707 544.365 174.483 544.365C176.259 544.365 177.452 543.172 177.452 541.396C177.452 539.621 176.259 538.428 174.483 538.428Z" fill="white"/>
<path d="M174.483 484.507C172.707 484.507 171.514 485.7 171.514 487.475C171.514 489.251 172.707 490.444 174.483 490.444C176.259 490.444 177.452 489.251 177.452 487.475C177.452 485.7 176.259 484.507 174.483 484.507Z" fill="white"/>
<path d="M118.329 521.505C119.969 521.505 121.298 520.175 121.298 518.536C121.298 516.896 119.969 515.567 118.329 515.567C116.69 515.567 115.36 516.896 115.36 518.536C115.36 520.175 116.69 521.505 118.329 521.505Z" fill="white"/>
<path d="M111.393 502.819C113.033 502.819 114.362 501.49 114.362 499.85C114.362 498.211 113.033 496.882 111.393 496.882C109.754 496.882 108.425 498.211 108.425 499.85C108.425 501.49 109.754 502.819 111.393 502.819Z" fill="white"/>
<path d="M174.483 520.45C172.707 520.45 171.514 521.643 171.514 523.419C171.514 525.194 172.707 526.387 174.483 526.387C176.259 526.387 177.452 525.194 177.452 523.419C177.452 521.643 176.259 520.45 174.483 520.45Z" fill="white"/>
<path d="M98.2425 484.507C96.4669 484.507 95.2739 485.7 95.2739 487.475C95.2739 489.251 96.4669 490.444 98.2425 490.444C100.018 490.444 101.211 489.251 101.211 487.475C101.211 485.7 100.018 484.507 98.2425 484.507Z" fill="white"/>
<path d="M174.483 502.486C172.707 502.486 171.514 503.679 171.514 505.455C171.514 507.231 172.707 508.424 174.483 508.424C176.259 508.424 177.452 507.231 177.452 505.455C177.452 503.679 176.259 502.486 174.483 502.486Z" fill="white"/>
<path d="M174.483 556.406C172.707 556.406 171.514 557.599 171.514 559.375C171.514 561.15 172.707 562.343 174.483 562.343C176.259 562.343 177.452 561.15 177.452 559.375C177.452 557.599 176.259 556.406 174.483 556.406Z" fill="white"/>
<path d="M161.332 498.27C159.557 498.27 158.364 499.463 158.364 501.238C158.364 503.014 159.557 504.207 161.332 504.207C163.108 504.207 164.301 503.014 164.301 501.238C164.301 499.463 163.108 498.27 161.332 498.27Z" fill="white"/>
<path d="M136.363 553.049C134.587 553.049 133.394 554.242 133.394 556.017C133.394 557.793 134.587 558.986 136.363 558.986C138.138 558.986 139.331 557.793 139.331 556.017C139.331 554.242 138.138 553.049 136.363 553.049Z" fill="white"/>
<path d="M98.2425 574.385C96.4669 574.385 95.2739 575.578 95.2739 577.353C95.2739 579.129 96.4669 580.322 98.2425 580.322C100.018 580.322 101.211 579.129 101.211 577.353C101.211 575.578 100.018 574.385 98.2425 574.385Z" fill="white"/>
<path d="M145.907 534.239C144.131 534.239 142.938 535.432 142.938 537.208C142.938 538.984 144.131 540.176 145.907 540.176C147.682 540.176 148.875 538.984 148.875 537.208C148.875 535.432 147.682 534.239 145.907 534.239Z" fill="white"/>
<path d="M98.2425 592.362C96.4669 592.362 95.2739 593.555 95.2739 595.331C95.2739 597.107 96.4669 598.3 98.2425 598.3C100.018 598.3 101.211 597.107 101.211 595.331C101.211 593.555 100.018 592.362 98.2425 592.362Z" fill="white"/>
<path d="M174.483 574.385C172.707 574.385 171.514 575.578 171.514 577.353C171.514 579.129 172.707 580.322 174.483 580.322C176.259 580.322 177.452 579.129 177.452 577.353C177.452 575.578 176.259 574.385 174.483 574.385Z" fill="white"/>
<path d="M98.2425 556.406C96.4669 556.406 95.2739 557.599 95.2739 559.375C95.2739 561.15 96.4669 562.343 98.2425 562.343C100.018 562.343 101.211 561.15 101.211 559.375C101.211 557.599 100.018 556.406 98.2425 556.406Z" fill="white"/>
<path d="M98.2425 520.45C96.4669 520.45 95.2739 521.643 95.2739 523.419C95.2739 525.194 96.4669 526.387 98.2425 526.387C100.018 526.387 101.211 525.194 101.211 523.419C101.211 521.643 100.018 520.45 98.2425 520.45Z" fill="white"/>
<path d="M174.483 592.362C172.707 592.362 171.514 593.555 171.514 595.331C171.514 597.107 172.707 598.3 174.483 598.3C176.259 598.3 177.452 597.107 177.452 595.331C177.452 593.555 176.259 592.362 174.483 592.362Z" fill="white"/>
<path d="M157.351 518.536C157.351 516.76 156.158 515.567 154.382 515.567C152.607 515.567 151.414 516.76 151.414 518.536C151.414 520.312 152.607 521.505 154.382 521.505C156.158 521.505 157.351 520.312 157.351 518.536Z" fill="white"/>
<path d="M98.2425 538.428C96.4669 538.428 95.2739 539.621 95.2739 541.396C95.2739 543.172 96.4669 544.365 98.2425 544.365C100.018 544.365 101.211 543.172 101.211 541.396C101.211 539.621 100.018 538.428 98.2425 538.428Z" fill="white"/>
<path d="M129.787 537.208C129.787 535.432 128.594 534.239 126.819 534.239C125.043 534.239 123.85 535.432 123.85 537.208C123.85 538.984 125.043 540.176 126.819 540.176C128.594 540.176 129.787 538.984 129.787 537.208Z" fill="white"/>
</g>
<defs>
<clipPath id="clip0_271_399">
<rect width="273.972" height="598.3" fill="white" transform="translate(0.763916)"/>
</clipPath>
</defs>
</svg>
