<svg width="64" height="64" viewBox="0 0 64 64" fill="none" xmlns="http://www.w3.org/2000/svg">
<path fill-rule="evenodd" clip-rule="evenodd" d="M30.4995 2.00002C30.4995 1.1716 31.1711 0.500013 31.9995 0.5H32.0005C32.8289 0.500013 33.5005 1.1716 33.5005 2.00002C33.5005 2.82845 32.8289 3.50001 32.0005 3.5C31.172 3.50001 30.4995 2.82845 30.4995 2.00002ZM21.9024 3.70167C22.2197 4.46692 21.8566 5.34451 21.0914 5.66183C20.3261 5.97917 19.4477 5.61644 19.1303 4.85121C18.813 4.08597 19.1761 3.20837 19.9413 2.89102L19.9423 2.89063C20.7075 2.57331 21.5851 2.93643 21.9024 3.70167ZM42.0976 3.70167C42.4149 2.93643 43.2925 2.57331 44.0577 2.89063L44.0587 2.89103C44.8239 3.20837 45.187 4.08597 44.8697 4.85121C44.5523 5.61644 43.6747 5.97953 42.9095 5.66218C42.1442 5.34486 41.7803 4.46692 42.0976 3.70167ZM11.8478 9.72581C12.4336 10.3116 12.4336 11.2613 11.8478 11.8471C11.262 12.4329 10.3116 12.4336 9.72581 11.8478C9.14001 11.262 9.13999 10.3123 9.72577 9.7265L9.7265 9.72577C10.3123 9.13999 11.262 9.14001 11.8478 9.72581ZM52.1522 9.72581C52.738 9.14001 53.6877 9.13999 54.2735 9.72577L54.2742 9.7265C54.86 10.3123 54.86 11.262 54.2742 11.8478C53.6884 12.4336 52.7387 12.4336 52.1529 11.8478C51.5671 11.262 51.5664 10.3116 52.1522 9.72581ZM4.85121 19.1303C5.61644 19.4477 5.97953 20.3253 5.66218 21.0905C5.34486 21.8558 4.46692 22.2197 3.70167 21.9024C2.93643 21.5851 2.57331 20.7075 2.89063 19.9423L2.89103 19.9413C3.20837 19.1761 4.08597 18.813 4.85121 19.1303ZM59.1488 19.1303C59.914 18.813 60.7916 19.1761 61.109 19.9413L61.1094 19.9423C61.4267 20.7075 61.0636 21.5851 60.2983 21.9024C59.5331 22.2197 58.6555 21.8566 58.3382 21.0914C58.0208 20.3261 58.3836 19.4477 59.1488 19.1303ZM2.00002 30.4995C2.82845 30.4995 3.50001 31.1711 3.5 31.9995C3.50001 32.828 2.82845 33.5005 2.00002 33.5005C1.1716 33.5005 0.500013 32.8289 0.5 32.0005V31.9995C0.500013 31.1711 1.1716 30.4995 2.00002 30.4995ZM62 30.4995C62.8284 30.4995 63.5 31.1711 63.5 31.9995V32.0005C63.5 32.8289 62.8284 33.5005 62 33.5005C61.1715 33.5005 60.5 32.8289 60.5 32.0005C60.5 31.172 61.1715 30.4995 62 30.4995ZM3.70167 42.0976C4.46692 41.7803 5.34451 42.1434 5.66183 42.9086C5.97917 43.6739 5.61644 44.5523 4.85121 44.8697C4.08597 45.187 3.20837 44.8239 2.89102 44.0587L2.89063 44.0577C2.57331 43.2925 2.93643 42.4149 3.70167 42.0976ZM60.2983 42.0976C61.0636 42.4149 61.4267 43.2925 61.1094 44.0577L61.109 44.0587C60.7916 44.8239 59.914 45.187 59.1488 44.8697C58.3836 44.5523 58.0205 43.6747 58.3378 42.9095C58.6551 42.1442 59.5331 41.7803 60.2983 42.0976ZM9.72581 52.1522C10.3116 51.5664 11.2613 51.5664 11.8471 52.1522C12.4329 52.738 12.4336 53.6884 11.8478 54.2742C11.262 54.86 10.3123 54.86 9.7265 54.2742L9.72577 54.2735C9.13999 53.6877 9.14001 52.738 9.72581 52.1522ZM54.2742 52.1522C54.86 52.738 54.86 53.6877 54.2742 54.2735L54.2735 54.2742C53.6877 54.86 52.738 54.86 52.1522 54.2742C51.5664 53.6884 51.5664 52.7387 52.1522 52.1529C52.738 51.5671 53.6884 51.5664 54.2742 52.1522ZM19.1303 59.1488C19.4477 58.3836 20.3253 58.0205 21.0905 58.3378C21.8558 58.6551 22.2197 59.5331 21.9024 60.2983C21.5851 61.0636 20.7075 61.4267 19.9423 61.1094L19.9413 61.109C19.1761 60.7916 18.813 59.914 19.1303 59.1488ZM44.8697 59.1488C45.187 59.914 44.8239 60.7916 44.0587 61.109L44.0577 61.1094C43.2925 61.4267 42.4149 61.0636 42.0976 60.2983C41.7803 59.5331 42.1434 58.6555 42.9086 58.3382C43.6739 58.0208 44.5523 58.3836 44.8697 59.1488ZM30.4995 62C30.4995 61.1715 31.1711 60.5 31.9995 60.5C32.828 60.5 33.5005 61.1715 33.5005 62C33.5005 62.8284 32.8289 63.5 32.0005 63.5H31.9995C31.1711 63.5 30.4995 62.8284 30.4995 62Z" fill="white"/>
</svg>
